<?xml version="1.0" standalone="no"?>
<!DOCTYPE svg PUBLIC "-//W3C//DTD SVG 1.1//EN" "http://www.w3.org/Graphics/SVG/1.1/DTD/svg11.dtd" >
<svg xmlns="http://www.w3.org/2000/svg">
<metadata>Generated by IcoMoon</metadata>
<defs>
<font id="icomoon" horiz-adv-x="1024">
<font-face units-per-em="1024" ascent="960" descent="-64" />
<missing-glyph horiz-adv-x="1024" />
<glyph unicode="&#x20;" horiz-adv-x="512" d="" />
<glyph unicode="&#xe600;" glyph-name="chevron_right" horiz-adv-x="624" d="M199.84 608l-71.84-73.481 233.352-239.205-233.352-239.205 71.84-73.481 305.701 312.686-305.701 312.686z" />
<glyph unicode="&#xe601;" glyph-name="clock" d="M512 928c-264 0-480-216-480-480s216-480 480-480c264 0 480 216 480 480s-216 480-480 480v0zM512 64c-211.2 0-384 172.8-384 384s172.8 384 384 384c211.2 0 384-172.8 384-384s-172.8-384-384-384v0zM511.667 389.401v284.256c0 13.602-11.033 24.635-24.635 24.635s-24.635-11.033-24.635-24.635v-304.66l138.329-138.329c4.807-4.807 11.099-7.222 17.413-7.222s12.606 2.415 17.435 7.222c9.593 9.615 9.593 25.211 0 34.848l-123.906 123.884z" />
<glyph unicode="&#xe602;" glyph-name="close" d="M452.331 433.877l-424.211 430.633 68.39 67.37 423.199-429.605 423.199 429.605 68.39-67.37-424.211-430.633 424.211-430.633-68.39-67.37-423.199 429.605-423.199-429.605-68.39 67.37 424.211 430.633z" />
<glyph unicode="&#xe603;" glyph-name="cook-time" d="M784.139 579.27c-44.795-16.479-91.459-25.187-138.681-28.19-55.514-3.53-111.229-4.918-166.863-5.069-65.241-0.178-130.174 5.507-193.846 20.959-43.179 10.48-85.661 23.162-118.683 60.327 3.184-38.232 6.235-74.028 9.137-109.838 4.86-60.094 9.593-120.202 14.447-180.302 5.041-62.406 11.014-124.751 14.835-187.232 1.468-23.962 9.935-42.705 29.704-53.814 23.705-13.325 48.153-26.336 73.755-34.873 70.805-23.62 144.118-30.201 218.395-29.038 56.687 0.889 112.57 7.169 167.44 21.664 35.637 9.419 70.363 21.425 100.315 44.361 13.863 10.616 23.845 23.579 24.093 42.439 0.114 8.106 1.012 16.205 1.683 24.298 5.805 69.705 11.685 139.403 17.457 209.115 5.222 63.159 10.364 126.331 15.479 189.503 1.663 20.474 3.124 40.961 4.887 64.144-20.413-26.083-46.397-38.451-73.554-48.451zM882.986 593.163c-1.917-24.913-3.734-48.533-5.537-72.010 2.38-0.397 3.178-0.759 3.861-0.616 44.010 9.296 88.027 18.572 131.984 28.142 2.34 0.513 5.651 3.263 5.98 5.377 1.964 12.785 3.191 25.686 4.726 39.107h-141.014zM0 592.752c1.542-12.409 3.412-23.798 4.203-35.263 0.442-6.375 3.124-8.243 8.842-9.406 28.122-5.767 56.137-12.101 84.219-18.093 15.995-3.42 32.051-6.56 49.44-10.103-2.011 25.303-3.868 48.691-5.785 72.865h-140.92zM201.374 634.165c13.072-7.6 26.145-15.699 40.149-21.062 63.384-24.291 129.818-33.478 196.883-36.508 48.75-2.196 97.721-1.943 146.491-0.041 61.004 2.374 121.499 10.699 179.741 30.283 19.897 6.69 38.627 17.231 57.391 27.006 8.862 4.61 9.606 12.504 2.232 19.92-7.274 7.313-14.279 15.104-22.444 21.247-40.853 30.734-87.464 48.814-136.167 61.072-31.467 7.928-63.612 13.038-95.857 19.489-4.525 28.203-26.078 45.236-58.296 44.477-25.769-0.602-55.695-12.915-57.243-46.276-9.11-1.183-17.349-2.21-25.582-3.338-61.185-8.393-120.326-24.373-174.486-55.066-19.857-11.246-37.018-27.601-54.85-42.343-7.548-6.239-6.228-14.057 2.038-18.859z" />
<glyph unicode="&#xe604;" glyph-name="activities" d="M699.254 530.519l7.62 1.53-53.399-121.62 73.246-85.14c12.228 7.59 27.467 13.68 42.737 18.27 94.63 30.36 193.837-24.36 222.81-118.59 29.003-94.26-25.931-194.61-120.561-223.5-94.63-27.36-195.343 25.86-224.346 120.12l-4.578 16.71-119.025-6.060c-3.072-1.53-6.144 0-9.186 0-4.578 0-9.156 3.030-16.776 9.12l-6.114 6.090c-19.848-12.18-36.623-21.3-35.087-19.77-15.27 10.62-4.578 31.92 7.62 51.66l-175.526 203.73-19.817-44.1c39.665-22.77 70.204-57.75 83.938-103.38 27.467-95.76-25.961-194.58-122.097-221.94-94.63-30.42-195.343 24.33-222.84 118.59-28.973 94.23 24.425 194.58 120.591 221.94 35.087 10.65 70.204 9.12 103.755 0l54.965 124.68h-7.62c-9.186 0-16.806 6.060-19.878 13.68v4.53c-1.506 10.65 7.65 21.3 18.342 22.83h19.848c24.395 34.95 67.132 101.85 67.132 101.85s42.737 100.32 39.695 118.56c-4.578 18.27 4.578 42.57 19.848 56.25 19.817 21.27 48.821 21.27 71.71 15.21 36.623-7.62 129.747-117.060 169.412-150.48 48.851-34.98 61.048-103.41 33.581-130.77v0zM250.562 296.429l-50.387-117.090c-4.548-9.12-16.776-13.68-27.467-9.12-4.578 1.53-9.156 6.12-10.692 12.18-1.506 4.56 0 9.090 1.536 13.68 0 0 22.889 54.72 50.357 117.060-22.889 6.060-48.821 6.060-73.246 0-70.204-22.83-111.405-97.29-88.516-168.75 19.848-69.93 94.63-110.97 166.34-89.7 70.204 21.3 111.435 95.76 90.052 167.22-10.662 31.95-30.509 57.78-57.976 74.52v0zM329.922 927.329c74.782 7.59 108.363-51.72 108.363-51.72l-22.92-3.030c9.186-22.8 6.114-50.16-12.198-69.93-27.467-24.33-68.668-25.86-93.094-1.5-18.312 16.68-24.425 39.51-19.848 60.78l-19.848-1.53c0 0 3.072 60.84 59.543 66.93v0zM331.427 478.859l-21.353-47.16 106.827 4.59c-1.536 9.090-4.578 30.39 6.114 44.070l151.070 92.73c-4.548 15.21-115.983 97.29-120.561 107.94l-30.509-74.49c0 0-87.010-120.12-90.052-124.65-1.536-1.53-1.536-1.53-1.536-3.030v0zM429.099 395.219l-91.558-3.030 149.564-174.81v1.5l-58.007 176.34zM589.355 481.889l-82.402-34.98c0 0 0-3.030 1.536-6.060l102.249 3.030c3.042 1.5 6.084 1.5 9.156 0h4.578c7.62 18.24 12.198 31.92 16.776 41.040-21.353-1.53-45.779-3.030-45.779-3.030-3.042 0-4.578-1.53-6.114 0v0zM606.161 402.809l-87.010-3.030c9.156-36.48 21.384-85.11 33.581-126.15l53.429 129.18zM694.676 300.989l-58.007 68.4-67.132-155.070c1.506-7.62 3.042-12.15 4.548-12.15 0-1.53-6.084-6.090-16.776-13.68l-6.084-13.68 88.516 4.53c1.506 45.63 21.353 89.7 54.935 121.65v0zM683.985 180.869l108.363 4.56-68.668 80.58c-22.889-22.8-36.653-53.22-39.695-85.14v0zM845.747 153.509l-7.59-4.56c-1.536-1.5-4.608-1.5-7.65-1.5l-141.944-7.62c0-1.53 0-3.060 1.536-4.56 22.889-71.43 97.672-111 169.412-91.23 70.174 22.8 111.405 97.32 88.516 168.75-19.848 69.93-96.136 111-166.34 88.2-9.186-3.060-18.342-6.090-25.961-10.68l91.558-107.91c7.65-7.59 6.114-21.27-1.536-28.89v0z" />
<glyph unicode="&#xe605;" glyph-name="cooking-difficulty" d="M954.702 697.365c-53.11 49.179-117.679 67.926-191.152 56.292-8.97-1.421-13.727 0.627-19.241 8.213-16.941 23.3-33.3 47.563-53.833 67.803-67.962 66.993-172.963 84.9-260.487 46.1-57.673-25.57-98.185-67.97-126.704-121.352-4.083-7.644-7.703-9.111-16.374-6.618-32.175 9.248-65.151 12.247-98.483 7.067-123.691-19.232-205.365-127.516-185.439-245.531 20.235-119.854 144.133-199.248 267.995-172.215 38.191 8.336 71.286 25.558 101.626 49.84 4.566-3.204 7.951-5.576 11.333-7.955 83.853-58.953 182.241-62.855 268.695-9.933 9.083 5.561 14.809 4.823 23.192-0.507 55.094-35.033 115.548-46.084 179.384-29.935 83.618 21.155 138.894 73 160.636 152.677 21.483 78.752 0.281 149.168-61.149 206.054zM655.342 324.001c-92.472-45.099-183.388-42.498-272.589 8.049-7.336 4.16-12.008 4.037-18.928-0.309-31.343-19.693-65.894-32.037-103.034-36.56-10.605-1.293-12.827-4.519-12.784-13.926 0.359-79.179 0.195-158.361 0.233-237.54 0.003-3.868 0.405-7.735 0.627-11.714h550.615v259.779c-46.997 1.445-90.472 11.88-130.779 33.759-3.183 1.728-9.523 0.335-13.361-1.537z" />
<glyph unicode="&#xe606;" glyph-name="facebook" d="M575.015-64v512.060h170.403l22.582 176.459h-192.985l0.29 88.319c0 46.023 5.272 70.683 84.96 70.683h106.529v176.479h-170.427c-204.71 0-276.763-85.601-276.763-229.556v-105.945h-127.603v-176.459h127.603v-512.040h255.412z" />
<glyph unicode="&#xe607;" glyph-name="google-plus" d="M453.486 668.444c0 71.111-43.886 213.333-153.6 213.333-43.886 0-95.086-28.444-95.086-120.889 0-85.333 43.886-206.222 146.286-206.222 0 0 102.4 7.111 102.4 113.778v0zM409.6 320h-21.943c-21.943 0-87.771-7.111-131.657-21.333-51.2-14.222-109.714-49.778-109.714-120.889 0-78.222 73.143-156.444 219.429-156.444 109.714 0 175.543 71.111 175.543 142.222 0 49.778-36.571 85.333-131.657 156.444v0zM0 149.333c0 35.556 7.314 113.778 109.714 170.667 58.514 35.556 131.657 56.889 226.743 64-14.629 14.222-21.943 35.556-21.943 71.111 0 14.222 0 21.333 7.314 35.556h-29.257c-146.286 0-234.057 106.667-234.057 213.333 0 120.889 95.086 256 299.886 256h307.2l-80.457-78.222h-51.2c29.257-28.444 65.829-78.222 65.829-156.444 0-99.556-51.2-149.333-117.029-192-14.629-7.111-29.257-28.444-29.257-49.778s14.629-35.556 29.257-42.667c7.314-7.111 21.943-14.222 36.571-21.333 58.514-42.667 138.971-92.444 138.971-206.222 0-128-95.086-277.333-358.4-277.333-204.8 0-299.886 113.778-299.886 213.333zM1024 448h-146.286v-142.222h-73.143v142.222h-146.286v71.111h146.286v142.222h73.143v-142.222h146.286v-71.111z" />
<glyph unicode="&#xe608;" glyph-name="up_btn" d="M512 25.492c-232.22 0-421.173 189.551-421.173 422.508s188.953 422.508 421.173 422.508c232.25 0 421.173-189.551 421.173-422.508s-188.923-422.508-421.173-422.508zM512-32c265.104 0 480 214.905 480 480s-214.896 480-480 480c-265.075 0-480-214.905-480-480s214.925-480 480-480zM357.584 389.177l40.532-41.473 131.944 134.714 131.944-134.714 40.532 41.473-172.476 176.481-172.476-176.481z" />
<glyph unicode="&#xe609;" glyph-name="mobile-nav" d="M0 229.333v-101.333h1024v101.333h-1024zM0 482.667v-101.333h1024v101.333h-1024zM0 736v-101.333h1024v101.333h-1024z" />
<glyph unicode="&#xe60a;" glyph-name="people" d="M698.182 480c79.127 0 139.636 62.4 139.636 144s-60.509 144-139.636 144c-79.127 0-139.636-62.4-139.636-144s60.509-144 139.636-144v0zM325.818 480c79.127 0 139.636 62.4 139.636 144s-60.509 144-139.636 144c-79.127 0-139.636-62.4-139.636-144s60.509-144 139.636-144v0zM325.818 384c-107.055 0-325.818-57.6-325.818-168v-120h651.636v120c0 110.4-218.764 168-325.818 168v0zM698.182 384c-13.964 0-27.927 0-46.545-4.8 55.855-38.4 93.091-96 93.091-163.2v-120h279.273v120c0 110.4-218.764 168-325.818 168v0z" />
<glyph unicode="&#xe60b;" glyph-name="pinterest" d="M64 592.567c0-101.164 43.29-191.164 136.14-224.702 15.225-5.507 28.863-0.189 33.278 14.725 3.072 10.322 10.337 36.361 13.579 47.205 4.452 14.751 2.725 19.924-9.562 32.781-26.773 27.94-43.881 64.111-43.881 115.346 0 148.643 125.699 281.712 327.318 281.712 178.53 0 276.614-96.513 276.614-225.408 0-169.593-84.831-312.729-210.767-312.729-69.547 0-121.609 50.889-104.922 113.302 19.98 74.511 58.685 154.927 58.685 208.71 0 48.145-29.21 88.301-89.66 88.301-71.097 0-128.21-65.071-128.21-152.243 0-55.521 21.206-93.070 21.206-93.070s-72.759-272.743-85.51-320.51c-25.4-95.128-3.817-211.742-1.994-223.52 1.071-6.977 11.208-8.636 15.801-3.364 6.557 7.571 91.233 100.060 120.021 192.477 8.144 26.17 46.761 161.676 46.761 161.676 23.096-38.98 90.605-73.316 162.396-73.316 213.713 0 358.706 172.376 358.706 403.108 0 174.467-167.026 336.952-420.884 336.952-315.858 0-475.116-200.355-475.116-367.433z" />
<glyph unicode="&#xe60c;" glyph-name="cooking-prep" d="M942.139 485.501c-24.028 6.445-48.591 11.565-73.246 15.138-92.405 13.404-185.628 18.219-278.859 19.931-162.449 2.97-324.92 2.106-486.299-19.923-30.104-4.101-59.611-12.719-89.195-20.027-10.753-2.657-15.583-9.95-14.353-21.881 5.243-50.913 17.967-100.025 37.074-147.5 38.87-96.572 98.771-176.912 191.674-231.004 16.080-9.362 33.038-17.296 49.019-25.587-4.777-11.662-9.102-22.558-13.703-33.334-2.66-6.229-0.841-9.645 5.984-10.687 9.79-1.496 19.511-3.773 29.362-4.488 113.491-8.254 227.073-7.279 340.656-2.396 18.923 0.811 37.723 4.108 56.6 5.999 9.614 0.96 11.632 6.363 8.651 13.954-3.982 10.144-8.812 19.975-13.94 31.429 2.782 1.288 5.824 2.754 8.911 4.123 70.456 31.37 127.477 78.614 171.627 140.244 53.306 74.416 84.297 157.399 96.303 247.183 3.745 28.035 2.148 31.198-26.267 38.827zM1007.138 823.757c-25.442 47.17-67.475 70.025-120.606 72.243-8.598-0.722-16.026-0.67-23.164-2.047-60.773-11.781-99.375-45.599-110.564-106.337-8.881-48.241-21.399-95.151-51.747-135.615-10.432-13.91-21.307-27.537-31.082-41.878-5.342-7.829-17.012-14.074-10.975-26.093 6.060-12.072 18.678-8.522 28.858-9.348 48.576-3.937 97.266-6.676 145.75-11.364 12.572-1.213 19.549 2.277 27.681 10.777 14.918 15.592 30.807 30.551 47.865 43.865 15.415 12.027 33.482 20.772 49.325 32.322 14.070 10.248 29.783 20.318 39.389 34.041 30.83 44.036 34.972 91.764 9.27 139.433z" />
<glyph unicode="&#xe60d;" glyph-name="quote-start" d="M984.719 835.719v-56.656c-80.167-29.292-142.989-75.349-188.469-138.172s-68.219-128.151-68.219-195.984c0-14.646 2.312-25.437 6.937-32.375 3.083-4.625 6.552-6.938 10.406-6.938s9.635 2.698 17.344 8.094c24.667 17.729 55.885 26.594 93.656 26.594 43.938 0 82.864-17.922 116.781-53.766s50.875-78.432 50.875-127.766c0-51.646-19.463-97.125-58.391-136.438s-86.14-58.969-141.641-58.969c-64.75 0-120.635 26.594-167.656 79.781s-70.531 124.489-70.531 213.906c0 104.063 31.989 197.333 95.969 279.812s164.958 148.771 302.938 198.875v0zM428.562 835.719v-56.656c-80.167-29.292-142.989-75.349-188.469-138.172s-68.219-128.151-68.219-195.984c0-14.646 2.312-25.437 6.938-32.375 3.083-4.625 6.552-6.938 10.406-6.938s9.635 2.698 17.344 8.094c24.667 17.729 55.885 26.594 93.656 26.594 43.938 0 82.864-17.922 116.781-53.766s50.875-78.432 50.875-127.766c0-51.646-19.463-97.125-58.391-136.438s-86.14-58.969-141.641-58.969c-64.75 0-120.635 26.594-167.656 79.781s-70.531 124.489-70.531 213.906c0 104.063 31.989 197.333 95.969 279.812s164.958 148.771 302.938 198.875v0z" />
<glyph unicode="&#xe60e;" glyph-name="image-caption" d="M1024 846.222c0 62.578-51.2 113.778-113.778 113.778h-796.444c-62.578 0-113.778-51.2-113.778-113.778v-796.444c0-62.578 51.2-113.778 113.778-113.778h796.444c62.578 0 113.778 51.2 113.778 113.778v796.444zM312.889 362.667l142.222-170.667 199.111 256 256-341.333h-796.444l199.111 256z" />
<glyph unicode="&#xe60f;" glyph-name="search" d="M731.847 315.975h-46.253l-16.393 15.808c57.377 66.744 91.92 153.395 91.92 247.657 0 210.186-170.374 380.56-380.56 380.56s-380.56-170.374-380.56-380.56c0-210.186 170.374-380.56 380.56-380.56 94.262 0 180.913 34.543 247.657 91.92l15.808-16.393v-46.253l292.739-292.153 87.236 87.236-292.153 292.739zM380.56 315.975c-145.784 0-263.465 117.681-263.465 263.465s117.681 263.465 263.465 263.465c145.784 0 263.465-117.681 263.465-263.465s-117.681-263.465-263.465-263.465v0z" />
<glyph unicode="&#xe610;" glyph-name="share" d="M837.333 601.6c-41.244 0-77.333-15.36-103.111-40.96l-366.044 209.92c5.156 10.24 5.156 25.6 5.156 35.84 0 87.040-67.022 153.6-154.667 153.6s-154.667-66.56-154.667-153.6c0-87.040 67.022-153.6 154.667-153.6 41.244 0 77.333 15.36 103.111 40.96l366.044-209.92c-5.156-10.24-5.156-25.6-5.156-35.84s0-25.6 5.156-35.84l-366.044-215.040c-25.778 25.6-61.867 40.96-103.111 40.96-82.489 0-149.511-66.56-149.511-148.48s67.022-148.48 149.511-148.48c82.489 0 149.511 66.56 149.511 148.48 0 10.24 0 20.48-5.156 35.84l366.044 215.040c25.778-25.6 61.867-40.96 103.111-40.96 87.644 0 154.667 66.56 154.667 153.6s-61.867 148.48-149.511 148.48v0z" />
<glyph unicode="&#xe611;" glyph-name="twitter" d="M507.201 640.508l2.22-35.986-36.995 4.406c-134.661 16.892-252.305 74.176-352.191 170.384l-48.833 47.737-12.578-35.252c-26.636-78.582-9.619-161.571 45.874-217.387 29.596-30.845 22.937-35.252-28.116-16.892-17.758 5.875-33.295 10.282-34.775 8.079-5.179-5.141 12.578-71.973 26.636-98.412 19.237-36.721 58.452-72.707 101.366-94.005l36.255-16.892-42.914-0.734c-41.434 0-42.914-0.734-38.475-16.157 14.798-47.737 73.25-98.412 138.361-120.444l45.874-15.423-39.954-23.501c-59.192-33.783-128.742-52.878-198.292-54.347-33.295-0.734-60.672-3.672-60.672-5.875 0-7.344 90.267-48.471 142.8-64.629 157.598-47.737 344.792-27.173 485.372 54.347 99.886 58.019 199.772 173.322 246.386 284.953 25.156 59.488 50.313 168.181 50.313 220.325 0 33.783 2.22 38.19 43.654 78.582 24.417 23.501 47.353 49.206 51.793 56.55 7.399 13.954 6.659 13.954-31.076 1.469-62.891-22.032-71.77-19.095-40.694 13.954 22.937 23.501 50.313 66.097 50.313 78.582 0 2.203-11.098-1.469-23.677-8.079-13.318-7.344-42.914-18.36-65.111-24.97l-39.954-12.485-36.255 24.236c-19.977 13.219-48.093 27.908-62.891 32.314-37.735 10.282-95.447 8.813-129.482-2.938-92.487-33.049-150.939-118.241-144.28-211.512z" />
<glyph unicode="&#xe612;" glyph-name="external-link" d="M691.2 684.8l-115.2 115.2h320v-320l-115.2 115.2-243.2-243.2-89.6 89.6 243.2 243.2zM768 416v-256h-512v512h256v128h384v-384h-128zM128 800v-768h768v768h-768z" />
<glyph unicode="&#xe613;" glyph-name="information" d="M404.62 437.056c0 27.648-58.752 57.024-82.944 57.024-46.656 3.456-50.112 15.552-50.112 32.832 0 25.848 32.832 34.488 65.664 38.016 50.112 5.112 184.896 37.944 231.552 57.024 13.824 6.912 34.56 13.824 51.84 13.824 13.824 0 17.28-20.808 17.28-93.312v-437.256c0-67.392 34.56-82.944 67.392-95.040s67.392-12.096 67.392-38.016c0-24.192-22.464-24.192-43.2-24.192-63.936 0-127.872 12.096-191.808 12.096s-148.608-12.096-212.544-12.096c-29.376 0-51.84 12.096-51.84 24.192 0 25.92 34.56 32.76 62.208 38.016 24.192 5.184 69.12 20.808 69.12 57.096v369.792zM625.804 824.128c0-69.12-58.752-126.144-127.872-126.144s-127.872 57.024-127.872 126.144c0 70.848 57.024 127.872 127.872 127.872s127.872-57.024 127.872-127.872v0z" />
<glyph unicode="&#xe614;" glyph-name="logo" d="M791.741 628.302c24.455 23.755 54.953 37.307 75.325 37.307 20.722 0 28.878-7.17 32.731-7.17 3.383 0 6.36 4.871 11.636 6.426 1.861 0.372 1.554 1.106 3.35 1.106 2.31 0 6.831-4.138 6.831-6.404 0-1.872-0.788-1.872-1.117-3.415-1.16-5.244-5.714-8.265-5.714-11.647 0-3.437 10.542-9.808 10.542-35.369 0-24.444-15.796-61.762-37.996-88.505-13.541-16.201-25.167-23.317-29.732-27.827-2.616-2.605-3.733-7.586-6.765-10.224-3.383-2.934-4.893-0.35-6.043-2.562-1.095-2.288-4.477-3.043-6.754-2.288-2.288 0.733-0.394-1.128-2.616-2.266-2.233-1.171-2.693-0.755-5.265-1.478-2.649-0.755-1.182-2.244-8.309-3.755 2.211-1.117 13.902 0.328 16.574 0.328 2.638 0 10.52 2.31 13.136 2.31 2.671 0 2.671 0.712 5.287 0.712 2.66 0 2.222-0.35 3.81-0.35 1.511 0 6.415 2.233 9.776 0 1.138 1.062 6.393 0.755 7.838 0.755 1.543 0 1.905-1.522 3.799-1.894 1.894-0.35 5.265 0 7.904-0.733 0.744-0.372 1.511-0.372 2.989-1.883 5.309 0.317 9.808-2.682 10.947-4.16 2.255-2.638 3.81-0.733 4.937-1.894 1.073-1.128 4.817-2.31 5.638-4.51 1.117-3.361 3.744-3.361 4.488-3.809 0.744-0.328 1.533-1.478 2.277-2.2 0.722-1.149 3.383-1.883 2.583-4.893 4.127 0 7.575-4.915 7.575-7.542s1.084-3.788 2.638-4.149c1.489-0.394 4.138-6.371 3.404-9.031-0.799-2.233 0.317-1.905 0.317-3.383 0-23.371-44.039-42.189-103.13-42.189-22.605 0-31.604 9.075-32.731 12.425-0.733 1.872-0.733 2.693-0.733 4.127-0.766 1.149-3.087 4.543-1.215 7.915 0 0-1.095 1.916-1.095 4.554 0.372 5.287 2.31 4.86 2.31 6.765-0.405 5.649 0.733 6.032 1.445 9.786 0.777 2.988 1.149 0.722 2.616 3.394 1.511 2.605 1.511 0.744 1.511 4.16 0 3.394 0.832 3.722 4.149 4.849 0 0 0.832 4.926 4.521 5.32 1.565 0 0.788 1.872 1.565 3.733 0.733 1.872 2.934 0.405 3.722 2.277 0.372 1.128 4.193 4.532 8.276 5.276-14.68 0.394-23.328-3.394-29.743-3.010-4.488 0.339-6.021 1.106-25.232-3.054-23.667-5.222-66.995-27.455-88.439-40.656-26.743-16.497-96.343-65.068-119.025-107.268-3.722-6.459-11.582-46.316-21.084-82.035-10.87-41.105-24.061-80.667-24.795-87.749 6.021 8.276 12.403 14.647 19.179 14.647 12.096 0 9.042-14.647 10.575-15.807 1.894-1.128 1.894 3.043 1.894 6.798 0 3.744 0.766 12.425 6.382 21.467 6.393 10.191 17.734 20.7 31.593 31.549 13.53 10.607 22.638 38.062 29.775 58.412 7.126 20.35 20.339 42.868 38.412 42.868 12.808 0 20.339-11.242 22.956-15.785 3.010-5.605 6.732-17.668 11.253-16.913 10.553 1.916 35.785 57.985 57.285 80.185 10.17 10.52 21.095 23.306 40.339 23.306 33.76 0 28.889-47.4 42.43-47.4 9.020 0 15.085 13.563 19.201 19.157 8.725 12.501 36.146 34.679 52.413 34.679 15.731 0 18.391-12.808 18.391-24.116 0-9.064-2.233-17.307 6.787-17.307 5.638 0 22.189 29.348 42.933 29.348 8.254 0 16.924-5.244 16.924-15.774 0-9.808-1.5-15.008-1.5-18.073 0-3.043 2.627-4.915 6.404-4.915 4.554 0 9.042 1.193 12.841 1.193 8.976 0 16.88-5.681 16.88-17.734 0-13.935-7.488-23.7-16.541-34.307-3.744-4.105-4.893-7.499-1.883-12.392 4.904-7.893 12.786-9.786 12.786-16.562 0-16.562-10.903-22.222-20.69-24.477-9.447-2.288-27.86-2.967-27.86-15.752 0-11.002 14.723-18.489 14.723-37.712 0-8.287-3.098-15.413-14.373-21.499-12.403-6.721-36.902-7.783-40.646-7.783-11.297 0-26.754 2.178-35.796 2.178-9.031 0-17.274-0.394-17.274-5.616 0-10.17 20.733-17.701 20.733-38.773 0-21.861-33.552-25.637-53.158-25.637-23.328 0-41.412 4.149-60.941 10.969-10.159 3.372-30.531 13.902-45.594 13.902-9.031 0-13.53-2.988-13.53-6.787 0-6.393 15.774-18.084 15.774-33.891 0-13.519-11.275-18.807-21.795-18.807-38.051 0-63.273 44.827-118.237 44.827-13.892 0-19.551-5.681-36.19-5.681-21.029 0-27.433 7.159-27.028 19.595-13.53-6.043-30.159-19.595-30.159-37.635 0-14.329 1.423-21.762 6.732-27.411 5.244-5.67 12.031-7.531 13.278-12.271 3.788-3.711-1.741-13.804 0.93-31.811 2.047-13.87 6.273-32.402 8.374-37.033 1.905-4.215-13.344-5.867-17.624-5.911-6.951-0.044-30.531-0.569-31.33 5.955-2.135 18.051-17.603 84.706-23.218 99.824-7.542 19.923-10.903 18.051-23.35 27.816-10.618 9.020-61.346 43.349-88.494 43.349-7.181 0-3.361 1.062-9.064 1.062-3.755 0-0.722 0.766-2.989 0.766-2.233 0-1.839-1.828-5.594-1.828-2.299 0-0.788-6.437-2.299-6.437-2.266 0-1.489-2.299-1.872-4.871-0.394-2.671-2.671-4.215-3.065-6.459-0.306-2.233-3.010 0-3.010-2.605 0-2.649 1.204-2.649 0-4.171-2.178-3.021-1.905-4.499-3.711-4.499-1.883-4.937-0.372-4.521-2.627-6.415-2.277-1.85-5.298-1.85-5.298-4.86 0-1.138-0.744-1.872-1.117-3.032-1.511 0-3.010-1.5-3.788-2.671-3.35-4.499-2.988-4.072-4.86-4.072-5.265 0-3.404-2.671-10.947-2.671-25.222 0-55.358 44.028-55.358 78.696 0 24.116 3.448 23.765 4.215 28.637 0.701 4.915 4.488 9.732 7.455 10.17 3.043 0.35 1.883 1.456 5.298 1.029-0.35 1.916 2.682 2.321 4.127 3.087 2.222 1.171 3.755 1.171 6.787-0.766 1.095 0.766 1.927 1.938 4.171 1.938 2.233 0 3.021-2.343 4.433-2.343 2.693 0 1.949 0.777 4.193 0.777 2.233 0 3.404-0.372 6.032-1.916 1.117 0.416 1.872 1.138 3.404 0.81 1.138-0.394 3.372-1.16 3.711-2.616 1.533 0 3.394 0.35 6.426-1.916 1.117-0.733 2.266-2.277 2.649-3.339 2.266-0.438 1.128 1.39 4.532-0.438 3.372-1.894 3.372-2.2 5.254-4.849 1.872-2.627 1.467-0.372 4.182-1.938 4.116-2.562 2.222-4.127 4.116-5.605 1.128 0 1.5 0 3.010-1.095 1.806-1.565 0.372-2.693 1.806-3.448 0.832-0.394 1.576 0 1.905-2.638 0.438-1.861 3.010-3.021 5.353-6.021 1.445-1.872 5.233-5.627 6.371-5.627 1.489 0 1.138 1.478-1.138 4.521-3.010 4.105-3.010 2.255-5.233 8.287-0.799 1.85-2.649 1.084-2.649 4.149 0 2.222-3.361 4.915-3.361 6.787 0 1.817 0 2.627-1.248 3.372-2.989 5.244-1.434 5.244-1.434 7.148-2.671 2.649-2.255 4.455-2.255 5.999s-1.511 0.766-1.511 3.394c0 2.266 0.383 1.522 0.383 4.127 0 2.594-1.533 1.883-1.894 4.149-0.427 2.233 0.755 1.905 0.755 4.51-0.755 5.298 0.361 4.543 0.361 7.936 0 1.084 0.777 2.594 1.16 3.711 0.328 1.565-1.16 1.565 0 3.109 3.777 5.572 10.126 15.030 41.018 15.030 38.412 0 73.015-9.458 87.728-29.031 1.095-1.522 2.627-1.522 3.010-4.828 0.383-2.704 1.467-3.087 1.467-7.192 0-2.277-1.467-4.543-1.85-7.236-0.777-4.466 0.766-9.349-1.883-9.349-2.288 0-0.744-7.893-3.043-7.893-1.522 0-0.296-2.671-3.722-2.671-2.671 0 0-7.52-3.777-8.615-1.117-0.372-3.777 0.701-4.499-3.043-0.416-1.478-1.916-5.265-4.554-5.638-3.744-0.733-2.2-0.733-4.138-2.277-4.882-4.499-1.467-5.254-3.054-6.732-3.7-3.766-4.51 4.149-7.148 1.084-1.095-1.5-1.795-1.5-1.795-2.999 0-3.372-0.777-2.222-3.426-1.467-2.988 1.095-5.638-2.693-4.521-3.842-2.999 0-4.587-0.35-5.681 0-1.839 0.799-4.149 0-4.149-1.916-1.828-2.89-1.412 0-3.295 0-1.927 0-3.799-0.317-3.799-0.317 0.788-2.288 29.305-16.179 36.53-19.529 16.902-9.458 29.754-19.606 38.007-19.606 11.297 0 41.751 76.047 39.901 111.46-0.679 10.87-1.117 13.497-0.679 15.063 0.679 3.394-7.203 2.999-7.203 18.051 0 3.415 0.712 10.542 3.404 13.946 1.445 1.905 5.638 4.116 8.243 4.116 2.649 0 9.425-5.254 10.148-8.287 3.032 4.543 11.275 42.2 11.275 53.858 0 4.105-1.489 9.425-2.956 10.914-1.565 1.522-15.052 4.105-26.71 19.223-0.788 1.106-2.332 1.883-3.098 1.106-0.635-0.722 0-1.106 0-3.766 0-3.766-6.010-13.957-16.114-13.957-16.957 0-21.456 7.542-40.273 7.542-9.13 0-15.468-3.35-20.361-7.542-9.086-7.499-24.849-14.68-31.976-14.68-17.318 0-8.692 24.094-19.245 24.094-7.926 0-7.926-12.764-10.914-21.040-4.893-13.552-36.125-50.465-53.442-50.465-16.968 0-10.542 29.721-20.295 29.721-6.065 0-9.841-8.692-11.724-14.68-7.531-24.871-17.712-42.868-27.86-54.548-10.159-11.702-23.678-32.786-39.168-32.786-15.063 0-11.264 23.689-18.424 29.359-3.394 2.649-10.115 5.627-13.957-1.522-7.882-15.413-16.541-45.155-38.774-45.155-13.935 0-16.913 10.159-17.263 17.318-0.438 7.137-0.438 8.659-1.587 12.808-1.084 4.116-2.2 8.276-6.71 8.276-3.065 0-6.448-1.894-9.425-9.359-3.054-7.608-13.552-23.787-32.764-23.787-16.979 0-22.966 6.765-23.273 12.063-0.438 6.787 1.401 16.541-11.768 13.18-14.68-3.799-23.317 18.084-23.317 26.699 0 15.873 10.947 27.126 10.947 32.764 0 6.743-15.457 10.52-15.457 27.148 0 37.241 39.595 27.433 39.595 44.783 0 15.807-27.936 22.955-27.936 39.507 0 33.497 44.039 39.507 52.37 39.507 8.287 0 17.712-2.616 22.145-2.616 4.554 0 16.628 2.222 16.628 7.542 0 5.265-4.915 12.808-9.414 18.796-4.543 6.065-10.553 11.691-10.553 18.861 0 23.371 24.466 32.030 41.707 32.030 33.968 0 57.34-6.798 66.316-10.925 9.458-4.16 17.635-11.319 26.032-11.319 4.105 0 7.104 1.511 7.104 5.32 0 7.827-13.147 17.679-13.147 32.665 0 11.713 10.52 24.127 28.626 24.127 18.051 0 44.006-10.531 57.591-18.828 13.519-8.287 36.913-30.848 47.816-30.848 11.669 0-1.565 35.741 24.422 35.741 22.244 0 50.082-24.050 68.56-58.729 3.35-6.404 13.147-20.306 21.401-24.838 13.629-7.488 29.721-32.359 32.085-50.815 0.701-5.67 4.433-9.020 5.594-9.020-1.16 5.605-1.861 16.913 5.627 18.412 7.214 1.543 18.818-7.52 21.85-11.669 2.255 4.499-3.766 20.733-5.616 25.221-1.522 3.755-12.074 39.179-14.669 45.561-2.704 6.393-14.308 34.658-18.117 41.828-6.338 12.436-19.518 17.296-25.944 20.635-9.458 5.32-19.573 17.723-22.211 19.989-2.638 2.255-2.638 1.883-4.083 1.883-1.215 0-3.448-8.648-16.245-8.648-13.191 0-28.976 20.306-44.827 28.998-22.561 12.446-52.315 16.234-63.568 17.69-7.947 1.117-34.307 6.787-46.71 14.702-8.298 5.276-10.991 12.764-10.991 18.807 0 12.808 15.873 20.295 19.661 21.795 3.733 1.489 7.838 3.809 7.838 6.448 0 3.755-6.743 6.754-11.626 9.819-6.437 3.722-16.223 4.828-29.392 5.244-13.147 0.372-34.286 3.733-46.283 9.042-12.074 5.233-38.062 23.689-38.062 39.113 0 10.947 5.649 18.85 14.723 23.371 9.042 4.499 23.689 9.042 23.689 16.168 0 4.904-5.276 6.032-9.009 8.659-4.182 2.967-26.71 7.17-34.275 8.659-11.242 2.266-57.613 11.275-57.613 39.868 0 27.126 40.689 28.232 40.689 33.902 0 6.032-12.074 9.83-24.86 17.701-15.085 9.436-31.242 22.66-31.242 35.446 0 25.561 36.475 18.029 36.475 27.444 0 1.894-2.277 5.638-3.7 7.137l-11.308 10.936c-3.755 3.82-7.904 11.636-7.904 15.019 0 10.553 10.958 10.224 10.958 15.118 0 2.956-1.193 3.733-1.193 6.732 0 6.831 7.531 14.307 22.233 10.575 4.893-1.128 7.871-1.522 12.414-0.788 4.51 0.788 7.104 7.181 16.584 7.181 12.775 0 18.434-13.563 21.445-17.329 2.638-3.415 3.755-6.371 6.382-6.371 3.82 0 4.521 9.797 8.298 14.669 2.682 3.394 10.202 9.031 16.53 9.031 20.328 0 36.584-16.968 44.805-35.391 1.565-3.744 4.182-8.637 6.842-8.637 7.893 0 15.041 33.475 39.168 33.475 15.008 0 21.773-5.32 27.466-10.191 9.020-8.265 10.509-25.572 14.658-37.613 3.744-10.936 1.511-41.784 1.511-48.199 0-6.393 1.467-23.689 6.798-23.689 9.71 0 18.752 24.433 41.762 24.433 10.148 0 25.572-13.924 25.572-45.966 0-34.887-15.424-46.633-15.424-71.877 0-4.86 0.777-10.148 5.276-10.148 4.576 0 7.159 7.531 10.148 10.892 4.116 4.543 11.68 7.586 22.31 7.586 12.359 0 17.997-11.691 17.997-27.126 0-10.925-6.393-53.847-6.393-75.642 0-21.861 7.51-33.213 7.51-59.167 0-20.339-9.765-33.114-9.765-42.079 0-3.864 4.86-10.542 8.648-9.086-4.127 5.222 0 18.872 3.383 20.7 2.616 1.5 7.159 0.394 9.458-0.372-2.638 17.274 4.127 33.508 10.159 34.592 8.626 1.927 24.827-14.264 26.294-16.935 2.244 2.321 4.543 4.51 7.947 4.51 4.893 0 10.126-3.711 14.625-8.987 1.16 1.894 1.489 3.394 1.489 5.999 0 4.171-8.254 25.648-8.254 43.721 0 21.806 10.235 42.178 10.235 59.113 0 32.402-10.235 51.899-10.235 67.312 0 32.107 9.797 49.326 24.882 49.326 14.647 0 22.901-14.614 32.359-14.614 6.787 0 10.925 13.114 11.998 21.029 5.298 36.891 7.969 116.32 48.637 135.521 8.626 4.182 18.774 1.193 25.933-6.382 14.351-14.636 17-31.986 27.849-31.986 7.553 0 17.701 18.807 21.521 27.060 5.605 12.873 25.572 33.924 45.911 33.924 34.614 0 22.211-37.657 39.113-37.657 17.734 0 31.286 32.413 60.175 32.413 8.374 0 17.767-8.67 17.767-19.212 0-6.798-0.744-12.031-0.744-15.446 0-3.383 0-7.564 3.777-7.564 3.755 0 15.096 12.074 23.306 12.074 14.734 0 11.319-14.307 18.106-18.839 3.777-2.638 18.413-3.744 18.413-18.818 0-19.179-18.413-18.763-18.413-27.871 0-6.327 15.796-10.936 15.796-21.423 0-11.319-11.297-23.733-20.69-24.827-7.148-0.821-31.614 0-31.614-10.564 0-2.255 6.043-5.649 11.242-10.191 6.47-5.616 13.585-12.041 13.585-21.828 0-13.53-15.074-26.699-61.762-26.699-7.52 0-9.732 0.744-17.657 0.744-3.361 0-9.808-0.416-15.763-1.916-8.32-2.255-16.267-5.244-16.267-9.447 0-13.497 26.36-13.125 26.36-29.721 0-12.381-8.67-20.646-19.934-27.060-7.553-4.521-36.88-15.84-54.187-15.84-35.019 0-39.573 4.149-49.677 4.149-8.747 0-15.479-2.988-15.479-8.243 0-5.32 5.265-8.33 13.147-12.819 4.937-2.638 24.915-9.414 24.915-26.053 0-17.274-28.692-26.655-41.062-28.91-32.041-6.459-50.093-15.457-71.932-36.54-11.286-10.936-35.030-39.912-58.763-28.615-10.159-14.669-25.189-29.359-27.072-41.784-3.372-21.499 28.615-121.947 42.528-121.947 8.637 0 21.116 11.286 39.179 23.339 12.042 7.882 24.433 16.475 38.807 26.36 62.474 42.528 114.077 64.356 114.077 72.621 0 6.404-5.287 12.052-7.225 15.435-1.445 2.999-3.394 4.127-4.86 6.787-1.565 2.627-1.138 3.415-2.244 5.659-1.182 2.233-2.616 3.766-3.426 6.765-0.679 2.616-0.679 3.021-0.394 5.222-2.255 0.755-2.255 2.649-2.255 4.981 0 2.189 0.372 2.189 0.372 4.433 0 2.321-1.489 0.799-1.489 4.182 0 4.565 1.489 4.171 1.489 6.765 0 0.755-2.649 2.255-2.649 4.138 0 3.372 2.649 4.138 2.649 6.404s-1.861 1.511-1.861 3.766c0 7.564 2.277 6.437 3.043 8.352-0.394 1.456 0.416 6.349 2.999 8.221 2.627 1.872 5.649 5.649 7.926 5.276 0 0 1.084 2.999 4.149 2.616 10.564 18.5 24.422 36.891 40.273 52.326z" />
<glyph unicode="&#xe615;" glyph-name="email" d="M651.216 414.357l372.784-247.015v568.658l-372.784-321.643zM0 736v-568.658l372.776 247.049-372.776 321.608zM512 294.247l-89.002 76.773-422.998-243.020h1024l-423.008 243.020-88.992-76.773zM993.28 736h-962.56l481.28-344.209 481.28 344.209z" />
<glyph unicode="&#xe616;" glyph-name="quote-end" d="M39.281 63.344v57.813c79.396 29.292 141.833 75.349 187.313 138.172s68.219 128.151 68.219 195.984c0 14.646-2.312 25.437-6.938 32.375-2.313 4.625-5.396 6.938-9.25 6.938s-10.021-3.083-18.5-9.25c-24.667-17.729-55.5-26.594-92.5-26.594-44.709 0-83.828 17.922-117.359 53.766s-50.297 78.432-50.297 127.766c0 52.417 19.271 98.088 57.813 137.016s85.948 58.391 142.219 58.391c63.979 0 119.672-26.401 167.078-79.203s71.109-123.911 71.109-213.328c0-104.063-31.989-197.333-95.969-279.812s-164.958-149.156-302.938-200.031v0zM595.438 63.344v57.813c79.396 29.292 141.833 75.349 187.313 138.172s68.219 128.151 68.219 195.984c0 14.646-2.312 25.437-6.937 32.375-2.313 4.625-5.396 6.938-9.25 6.938s-10.021-3.083-18.5-9.25c-24.667-17.729-55.5-26.594-92.5-26.594-44.709 0-83.828 17.922-117.359 53.766s-50.297 78.432-50.297 127.766c0 52.417 19.271 98.088 57.813 137.016s85.948 58.391 142.219 58.391c63.979 0 119.672-26.401 167.078-79.203s71.109-123.911 71.109-213.328c0-104.063-31.989-197.333-95.969-279.812s-164.958-149.156-302.938-200.031v0z" />
<glyph unicode="&#xe617;" glyph-name="adult" d="M471.842 952.47c-37.145-16.565-57.725-45.176-63.247-87.341-12.549-94.871 105.412-153.6 175.184-86.839 28.612 27.106 39.153 66.761 28.612 105.412-6.024 24.094-29.616 53.208-51.2 64.251-22.086 11.545-68.267 13.553-89.349 4.518zM379.482 713.034c-10.039-9.537-23.592-50.196-72.784-217.349-33.631-113.443-60.737-209.82-60.737-214.839s5.522-14.557 12.549-21.082c21.584-21.584 55.216-13.553 66.761 16.063 3.012 7.529 15.059 45.678 26.604 84.329s27.106 90.855 34.635 115.451l14.557 45.176v-271.059c0.502-261.522 1.004-271.561 10.541-287.624 5.522-9.035 16.063-18.573 23.090-21.082 16.565-6.525 138.039-6.525 154.604 0 7.027 2.51 17.569 12.047 23.090 21.082 9.537 16.063 10.039 26.102 10.541 290.133 0 150.588 1.004 271.561 2.008 268.549 1.004-2.51 10.039-33.129 20.078-67.765 31.624-107.922 48.188-162.635 53.71-177.192 11.545-29.616 45.176-37.647 66.761-16.063 7.027 6.525 12.549 16.565 12.549 21.584 0 5.522-27.106 102.4-60.737 214.839-49.192 166.149-63.247 207.31-72.784 216.847-12.549 11.043-15.059 11.043-132.518 11.043s-119.969 0-132.518-11.043z" />
<glyph unicode="&#xe618;" glyph-name="calendar" d="M768 740.533c40.375 0 73.143 32.718 73.143 73.139v73.188c0 40.275-32.768 73.139-73.143 73.139s-73.143-32.864-73.143-73.139v-73.188c0-40.422 32.768-73.139 73.143-73.139v0zM256 740.533c40.375 0 73.143 32.718 73.143 73.139v73.188c0 40.275-32.768 73.139-73.143 73.139s-73.143-32.864-73.143-73.139v-73.188c0-40.422 32.768-73.139 73.143-73.139v0zM950.857 850.291h-73.143v-36.618c0 0-1.17-110.782-109.714-110.782 0 0-109.714 1.121-109.714 109.66l-1.17 37.74h-292.571v-36.618c0 0 1.17-110.782-108.544-110.782 0 0-110.885-1.121-110.885 109.66v37.74h-71.973c-40.424 0-73.143-32.815-73.143-73.188v-767.915c0-40.47 32.719-73.188 73.143-73.188h877.714c40.375 0 73.143 32.718 73.143 73.188v767.915c0 40.373-32.768 73.188-73.143 73.188v0zM73.143 594.303h877.714v-585.115h-877.714v585.115zM364.008 353.089v-198.744h75.191v293.972h-65.048c-8.485-18.090-20.236-27.549-35.304-39.837-15.116-12.336-20.236-16.042-47.494-31.645v-65.582c20.773 12.482 30.037 17.651 30.037 17.651s29.55 14.189 42.618 24.185v0zM577.243 279.365c-13.507-31.791-23.406-78.064-29.696-125.020h79.774c2.633 33.742 7.704 69.921 15.311 94.642 9.557 31.84 12.288 49.247 28.77 75.139 13.605 21.357 40.911 37.789 61.196 56.122v68.946h-222.159v-73.334h130.828c-29.16-36.277-50.517-64.606-64.024-96.495v0z" />
<glyph unicode="&#xe619;" glyph-name="checked" d="M511.971 928c-265.075 0-479.971-214.905-479.971-480s214.896-480 479.971-480c265.104 0 480.029 214.905 480.029 480s-214.925 480-480.029 480v0zM425.643 187.392l-190.059 190.033 64.681 64.681 125.379-125.405 323.325 323.299 64.655-64.655-387.98-387.953z" />
<glyph unicode="&#xe61a;" glyph-name="chevron-down" d="M662.327 407.787l-70.303 72.213-228.86-234.563-228.86 234.563-70.303-72.213 299.164-307.288 299.164 307.288z" />
<glyph unicode="&#xe61b;" glyph-name="chevron-left" d="M400.181-14.26l71.482 73.116-232.191 238.014 232.191 238.014-71.482 73.116-304.181-311.13 304.181-311.13z" />
<glyph unicode="&#xe61c;" glyph-name="chevron-up" d="M64 172.712l70.303-72.213 228.86 234.563 228.86-234.563 70.303 72.213-299.164 307.288-299.164-307.288z" />
<glyph unicode="&#xe61d;" glyph-name="date-picker" d="M240 955c-25.1-6.8-44.3-23.9-52.8-47.2l-2.7-7.3-0.3-49.7c-0.3-55.4-0.2-57 6.4-70.1 9.4-18.7 28.1-33.6 49.4-39.4 9.8-2.7 26.4-2.4 36 0.6 23.9 7.4 42.1 24.5 50.2 47.1 2.3 6.4 2.3 7.1 2.6 56.2 0.2 42.2 0.1 50.6-1.3 56.4-5.5 23.8-25.7 44.1-52 52.4-10.3 3.2-25.7 3.7-35.5 1zM752 955c-25.1-6.8-44.3-23.9-52.8-47.2l-2.7-7.3-0.3-49.7c-0.3-55.4-0.2-57 6.4-70.1 9.4-18.7 28.1-33.6 49.4-39.4 9.8-2.7 26.4-2.4 36 0.6 23.9 7.4 42.1 24.5 50.2 47.1 2.3 6.4 2.3 7.1 2.6 56.2 0.2 42.2 0.1 50.6-1.3 56.4-5.5 23.8-25.7 44.1-52 52.4-10.3 3.2-25.7 3.7-35.5 1zM55.4 847.5c-21.1-4.6-45.7-27.9-52.5-49.6-1.9-5.9-1.9-15.5-1.9-403.7 0-292.9 0.3-399.2 1.1-403.6 2.5-12.9 5.8-19 16.6-29.9 8.3-8.4 20.9-17 30.6-20.8l7.2-2.8 909.5-0.1 6.2 2.4c20.6 7.7 39.1 25 45.4 42.4l2.4 6.7v401.6c0 331.2-0.2 402.4-1.3 406-5.5 18-21.7 37.4-38.9 46.4-11.4 6-15.4 6.5-61 6.5h-40.8v-22.7c0-20.4-0.3-23.9-2.4-33.3-9.2-40.3-28.6-66.8-59.7-81.4-16-7.5-24.2-9.1-46.4-9-17.1 0-19.9 0.3-28.5 2.6-47.2 12.8-78.8 47.7-84 92.8-0.5 4.7-1 16.7-1 26.6 0 10-0.3 19.6-0.6 21.3l-0.6 3.1h-289.8v-23.2c0-19.4-0.4-24.9-2-32.8-5.6-26.4-15.6-46.4-31-62.1-12.3-12.6-27-20.9-45-25.6-13.1-3.5-37.2-4.3-51.6-1.9-44.8 7.6-78.2 36.6-88.4 76.6-2.8 11-4 25.7-4 48.6v20.4l-40.7-0.1c-29.9 0-42.4-0.4-46.9-1.4zM257 551v-90h-184v180h184v-90zM493 551v-90h-198v180h198v-90zM729 551v-90h-198v180h198v-90zM950 551v-90h-183v180h183v-90zM257 325v-98h-184v196h184v-98zM493 325v-98h-198v196h198v-98zM729 325v-98h-198v196h198v-98zM950 325v-98h-183v196h183v-98zM257 98.5v-90.5h-184v181h184v-90.5zM493 98.5v-90.5h-198v181h198v-90.5zM729 98.5v-90.5h-198v181h198v-90.5zM950 98.5v-90.5h-183v181h183v-90.5z" />
<glyph unicode="&#xe61e;" glyph-name="cooking-time" d="M512 928c-264 0-480-216-480-480s216-480 480-480c264 0 480 216 480 480s-216 480-480 480v0zM512 64c-211.2 0-384 172.8-384 384s172.8 384 384 384c211.2 0 384-172.8 384-384s-172.8-384-384-384v0zM511.667 389.401v284.256c0 13.602-11.033 24.635-24.635 24.635s-24.635-11.033-24.635-24.635v-304.66l138.329-138.329c4.807-4.807 11.099-7.222 17.413-7.222s12.606 2.415 17.435 7.222c9.593 9.615 9.593 25.211 0 34.848l-123.906 123.884z" />
<glyph unicode="&#xe61f;" glyph-name="difficulty" d="M103.712 133.024l-79.424 53.952 238.528 351.328 116.96-172.704 322.368 393.024 300.416-576.448-85.12-44.352-233.216 447.552-311.84-380.096-109.664 161.984z" />
<glyph unicode="&#xe620;" glyph-name="directions" d="M1008.64 483.84l-460.8 460.8c-20.48 20.48-51.2 20.48-71.68 0l-460.8-460.8c-20.48-20.48-20.48-51.2 0-71.68l460.8-460.8c20.48-20.48 51.2-20.48 71.68 0l460.8 460.8c20.48 20.48 20.48 51.2 0 71.68v0zM614.4 320v128h-204.8v-153.6h-102.4v204.8c0 30.72 20.48 51.2 51.2 51.2h256v128l179.2-179.2-179.2-179.2z" />
<glyph unicode="&#xe621;" glyph-name="distance" d="M656.407 297.237c-3.116 0-6.148 0.089-9.193 0.268-82.923 4.769-135.136 73.589-181.174 134.258-37.464 49.387-72.87 96.033-115.354 98.491-40.425 2.235-94.33-31.847-160.362-101.636l-63.423 66.972c87.252 92.173 159.911 133.17 228.72 129.25 82.472-4.754 134.488-73.336 180.384-133.811 37.591-49.626 73.166-96.48 116.101-98.939 41.553-2.578 96.037 32.413 163.196 103.484l63.423-66.972c-84.545-89.371-155.483-131.367-222.318-131.367zM135.616 412.154l-18.203 19.209-49.576-52.487-49.661 52.487-18.175-19.209 49.647-52.487-49.647-52.457 18.175-19.209 49.661 52.442 49.576-52.442 18.203 19.209-49.689 52.457 49.689 52.487zM1024 620.791l-18.203 19.209-49.619-52.472-49.689 52.472-18.175-19.209 49.661-52.457-49.661-52.457 18.175-19.209 49.689 52.457 49.619-52.457 18.203 19.209-49.647 52.457 49.647 52.457z" />
<glyph unicode="&#xe622;" glyph-name="down_btn" d="M512 870.508c232.22 0 421.173-189.551 421.173-422.508s-188.953-422.508-421.173-422.508c-232.25 0-421.173 189.551-421.173 422.508s188.923 422.508 421.173 422.508zM512 928c-265.104 0-480-214.905-480-480s214.896-480 480-480c265.075 0 480 214.905 480 480s-214.925 480-480 480zM666.416 506.823l-40.532 41.473-131.944-134.714-131.944 134.714-40.532-41.473 172.476-176.481 172.476 176.481z" />
<glyph unicode="&#xe623;" glyph-name="download" d="M928 598.588h-237.714v361.412h-356.571v-361.412h-237.714l416-421.647 416 421.647zM96 56.471v-120.471h832v120.471h-832z" />
<glyph unicode="&#xe624;" glyph-name="expand" horiz-adv-x="1056" d="M315.512-70.244h-315.512v315.512l103.024 103.024v-231.805l206.049 206.049 83.707-83.707-206.049-206.049h231.805l-103.024-103.024zM1030.244 245.268v-315.512h-315.512l-103.024 103.024h231.805l-206.049 206.049 83.707 83.707 206.049-206.049v231.805l103.024-103.024zM714.732 960h315.512v-315.512l-103.024-103.024v231.805l-206.049-206.049-83.707 83.707 206.049 206.049h-231.805l103.024 103.024zM0 644.488v315.512h315.512l103.024-103.024h-231.805l206.049-206.049-83.707-83.707-206.049 206.049v-231.805l-103.024 103.024z" />
<glyph unicode="&#xe625;" glyph-name="facilities" d="M212.096 747.2c50.785 0 92.002 40.459 92.002 90.32 0 49.981-41.217 90.48-92.002 90.48-50.826 0-89.426-40.499-89.426-90.48 0-49.861 38.6-90.32 89.426-90.32v0zM398.677 415.693l-2.576 273.691c0 0-12.758 30.174-61.335 30.174h-281.118c0 0-40.89 5.022-53.648-30.174v-273.691c0 0 2.535-20.089 28.091-25.151 0 0 28.132-10.004 30.667 27.682v145.644c0 0 12.799 65.289 30.667 15.067l2.576-582.578c0 0-2.576-27.602 28.091-27.602h33.243c0 0 28.091-2.531 28.091 27.602v268.669c0 0-5.111 27.642 12.799 27.642 0 0 17.869-5.022 17.869-22.62v-276.182c0 0 0-25.111 30.667-25.111h33.244c0 0 30.667-7.553 30.667 25.111v585.069c0 0 7.646 45.2 30.667 7.513l-0.94-169.43c0 0-7.115-30.776 31.608-30.776 35.86-2.853 30.667 29.45 30.667 29.45zM776.909 747.2c50.785 0 92.002 40.499 92.002 90.44 0 49.901-41.217 90.36-92.002 90.36s-89.467-40.459-89.467-90.36c0-49.941 38.682-90.44 89.467-90.44zM1019.672 443.376l-104.76 246.129c0 0-12.799 30.133-48.577 30.133h-186.54c0 0-40.89 4.982-53.688-30.133l-89.426-238.576c0 0-20.445-50.222 20.445-57.816 0 0 22.98-2.491 40.89 32.705l56.224 155.689c0 0 22.98 35.156 30.667-2.531l-94.578-246.049c0 0-28.091-35.196-2.535-35.196h68.981v-301.333c0 0-2.535-27.642 28.132-27.642h33.203c0 0 28.132-2.531 28.132 27.642v273.691c0 0-2.576 27.642 15.334 27.642 0 0 17.869-10.004 17.869-27.642v-276.222c0 0 2.576-25.111 33.244-25.111h28.091c0 0 30.667-7.513 30.667 25.111v303.865h61.335c0 0 23.021 0 7.687 27.642l-71.557 258.624c0 0 10.222 25.071 20.445 7.553l66.446-165.733c0 0 15.334-40.218 38.314-37.647 0 0 43.466 7.513 25.556 55.204z" />
<glyph unicode="&#xe626;" glyph-name="family" horiz-adv-x="1600" d="M525.017 940.663c-68.926-33.721-81.327-121.982-24.786-171.573 41.655-36.688 101.164-34.22 140.335 5.451 42.156 41.655 42.156 103.149 0 144.804-31.736 32.237-76.86 40.655-115.549 21.319zM977.279 942.163c-66.943-31.238-81.828-116.033-30.255-167.604 39.171-39.673 98.679-42.156 139.836-5.951 21.319 18.836 31.736 37.689 34.705 65.459 5.451 41.655-17.852 86.777-53.058 105.131-23.802 12.402-68.425 13.885-91.246 2.985zM147.633 714.533c-79.343-38.672-46.122-156.206 42.639-151.253 31.736 1.484 56.041 20.82 66.943 53.058 6.934 21.821 6.934 21.821 1.984 47.106-9.916 46.122-67.442 72.892-111.583 51.074zM1383.912 716.032c-53.058-23.802-65.459-95.212-23.303-133.4 12.902-11.901 44.622-22.801 58.025-20.335 30.255 5.451 37.188 8.917 51.074 22.32 40.655 39.673 29.756 106.115-20.82 128.936-23.802 10.92-44.14 11.402-64.959 2.484zM446.173 710.567c-13.885-9.417-14.867-12.402-61.99-171.090-22.32-74.877-41.655-138.353-43.139-140.836s-11.901 25.286-23.802 61.99c-11.901 36.205-24.786 69.427-29.254 73.394-10.92 11.402-187.943 11.901-201.828 0.502-8.435-6.934-13.885-22.32-20.82-61.99-1.484-7.934-10.419-54.057-20.335-101.665s-18.836-93.231-20.335-101.665c-1.484-7.934-4.468-23.802-6.934-34.705s-4.951-23.802-4.951-28.27c0-12.402 17.852-28.753 31.238-28.753 11.901 0 29.756 14.867 31.238 26.288 0 3.468 1.984 17.353 3.968 30.755 1.484 13.885 3.968 31.736 5.451 39.673 4.951 30.255 7.433 45.123 10.419 69.427 1.484 13.885 3.968 25.788 4.951 26.77s1.984-87.778 1.984-197.359c0-203.811 0.985-212.745 19.337-227.114 10.419-7.934 109.599-8.435 126.45-0.985 6.934 3.468 14.384 9.417 16.368 13.885s4.951 102.146 6.451 217.197l2.484 209.762 19.337-58.507c22.801-66.443 32.237-80.328 55.542-80.328 27.77 0 38.672 15.369 59.006 84.294 9.916 34.22 18.836 65.459 19.837 69.427 1.484 7.934 18.836 63.976 29.756 96.696 5.951 16.853 6.934-17.353 6.934-247.949 0.502-258.369 0.985-268.286 10.419-284.156 5.451-8.917 15.869-18.353 22.801-20.82 21.319-8.435 138.853-6.451 155.706 2.484 27.77 14.384 27.27 8.435 29.756 300.024l2.484 270.269 36.205-123.966c39.171-133.4 46.122-146.285 75.378-146.285s36.205 13.385 74.378 143.802c19.337 66.943 36.205 122.484 37.689 123.483 0.985 0.985 1.984-119.016 1.984-266.785 0-295.557-0.985-284.638 30.255-301.009 19.837-9.916 138.353-9.916 158.187 0.502 30.255 15.369 29.756 10.92 30.255 303.492v266.785l9.916-27.27c4.951-14.867 10.419-31.736 11.402-37.188 4.468-19.337 47.606-164.139 53.058-177.525 7.934-18.836 22.801-28.27 44.622-28.27 25.286 0 32.237 10.419 56.525 81.327l19.837 58.025 2.484-209.762c1.484-115.549 4.468-213.23 6.451-217.695 6.934-14.384 27.77-19.337 77.861-19.337 54.057 0 70.409 4.951 78.843 23.303 3.468 7.934 5.451 75.378 5.451 210.763 0 109.599 0.985 197.859 1.984 196.877s3.468-13.885 5.451-28.753c1.984-14.867 3.968-31.238 5.451-36.688 0.985-5.451 2.985-20.335 4.468-32.72s3.468-27.27 4.468-32.72c0.985-5.451 3.468-19.337 4.951-30.255 3.968-23.802 19.337-34.705 40.174-29.756 23.303 5.951 24.786 19.337 9.916 92.732-7.433 36.688-14.384 70.909-15.369 76.36-20.82 113.566-36.688 179.025-45.123 185.958-13.385 10.419-188.942 10.92-201.828 0.502-4.468-3.968-18.353-38.672-30.755-78.344-12.902-39.171-23.802-70.409-24.786-69.926-0.985 1.484-46.122 150.254-81.327 269.771-10.92 37.689-17.353 50.089-29.756 56.525-5.451 2.985-56.041 4.951-125.951 4.951-114.049 0-116.533-0.502-128.936-10.92-9.417-8.917-20.335-38.672-50.089-140.335-20.82-70.909-39.673-130.417-41.154-132.401-1.984-1.984-21.319 57.026-43.139 130.917-31.736 108.098-42.156 135.867-51.573 143.32-10.92 8.435-21.821 9.417-128.936 9.417-94.712 0-119.518-1.484-127.451-7.433z" />
<glyph unicode="&#xe627;" glyph-name="group" d="M429.698 742.632h-231.703c-29.794 0-56.479-27.858-72.11-60.495l-123.84-255.324c-7.859-17.941 7.859-39.218 31.349-39.218 21.935 0 31.349 11.45 37.566 22.9l106.654 199.607 45.425-140.735-131.698-513.713c-3.109-13.073 4.75-19.654 17.272-19.654h78.415c17.186 0 25.044 16.318 29.794 32.727l96.982 391.010 97.068-391.010c4.75-16.409 12.522-32.727 29.794-32.727h78.415c12.522 0 20.381 6.581 17.186 19.654l-131.612 513.713 45.425 140.735 106.568-199.607c6.304-11.45 15.717-22.9 37.653-22.9 23.49 0 39.207 21.277 31.349 39.218l-123.84 255.324c-15.717 32.637-42.316 60.495-72.11 60.495zM313.803 960c-50.089 0-90.764-42.464-90.764-94.755s40.675-94.845 90.764-94.845c50.089 0 90.85 42.554 90.85 94.845s-40.762 94.755-90.85 94.755zM800 544v160h64v-160h160v-64h-160v-160h-64v160h-160v64h160z" />
<glyph unicode="&#xe628;" glyph-name="instagram" d="M921.6 960h-819.2c-56.32 0-102.4-46.080-102.4-102.4v-819.2c0-56.32 46.080-102.4 102.4-102.4h819.2c56.32 0 102.4 46.080 102.4 102.4v819.2c0 56.32-46.080 102.4-102.4 102.4v0zM512 652.8c112.64 0 204.8-92.16 204.8-204.8s-92.16-204.8-204.8-204.8c-112.64 0-204.8 92.16-204.8 204.8s92.16 204.8 204.8 204.8v0zM128 38.4c-15.36 0-25.6 10.24-25.6 25.6v435.2h107.52c-5.12-15.36-5.12-35.84-5.12-51.2 0-168.96 138.24-307.2 307.2-307.2s307.2 138.24 307.2 307.2c0 15.36 0 35.84-5.12 51.2h107.52v-435.2c0-15.36-10.24-25.6-25.6-25.6h-768zM921.6 729.6c0-15.36-10.24-25.6-25.6-25.6h-102.4c-15.36 0-25.6 10.24-25.6 25.6v102.4c0 15.36 10.24 25.6 25.6 25.6h102.4c15.36 0 25.6-10.24 25.6-25.6v-102.4z" />
<glyph unicode="&#xe629;" glyph-name="location-detected" d="M512 928c-264.672 0-480-215.328-480-480 0-264.662 215.328-480 480-480s480 215.338 480 480c0 264.672-215.328 480-480 480v0zM550.707 47.325v129.706h-77.414v-129.715c-191.146 18.326-343.651 170.832-361.968 361.978h129.715v77.414h-129.715c18.326 191.146 170.822 343.642 361.968 361.968v-129.706h77.414v129.706c191.146-18.317 343.651-170.813 361.968-361.968h-129.706v-77.414h129.715c-18.326-191.146-170.832-343.651-361.978-361.968v0z" />
<glyph unicode="&#xe62a;" glyph-name="location-pin" d="M496 960c-205.029 0-368-158.72-368-358.4 0-266.24 368-665.6 368-665.6s368 399.36 368 665.6c0 199.68-162.971 358.4-368 358.4v0zM496 473.6c-73.6 0-131.429 56.32-131.429 128s57.829 128 131.429 128c73.6 0 131.429-56.32 131.429-128s-57.829-128-131.429-128v0z" />
<glyph unicode="&#xe62b;" glyph-name="location-searched" d="M512 870.508c232.22 0 421.173-189.551 421.173-422.508s-188.953-422.508-421.173-422.508c-232.25 0-421.173 189.551-421.173 422.508s188.923 422.508 421.173 422.508zM512 928c-265.104 0-480-214.905-480-480s214.896-480 480-480c265.075 0 480 214.905 480 480s-214.925 480-480 480zM517.324 151.859c170.569 0 308.842 135.135 308.842 301.833s-138.273 301.833-308.842 301.833c-170.569 0-308.842-135.135-308.842-301.833s138.273-301.833 308.842-301.833z" />
<glyph unicode="&#xe62c;" glyph-name="map" d="M761.229 864v-727.986l262.771-104.014v727.986l-262.771 104.014zM669.682 864l-315.366-104.014v-727.986l315.366 104.014v727.986zM0 864v-727.986l262.8-104.014v727.986l-262.8 104.014z" />
<glyph unicode="&#xe62d;" glyph-name="minus-btn" d="M512 928c-264 0-480-216-480-480s216-480 480-480c264 0 480 216 480 480s-216 480-480 480v0zM512 64c-211.2 0-384 172.8-384 384s172.8 384 384 384c211.2 0 384-172.8 384-384s-172.8-384-384-384v0zM320 480v-96h384v96h-384z" />
<glyph unicode="&#xe62e;" glyph-name="plus-btn" d="M513.515 928c-264 0-480-216-480-480s216-480 480-480c264 0 480 216 480 480s-216 480-480 480v0zM513.515 64c-211.2 0-384 172.8-384 384s172.8 384 384 384c211.2 0 384-172.8 384-384s-172.8-384-384-384v0zM561.515 496v144h-96v-144h-144v-96h144v-144h96v144h144v96h-144z" />
<glyph unicode="&#xe62f;" glyph-name="mountain" d="M0 192l227.156 347.66 129.513-198.716 362.42 459.056 304.912-608z" />
<glyph unicode="&#xe630;" glyph-name="overview" d="M512.781 179.872c25.267 61.119 236.673 369.231 90.601 454.036-81.559 47.361-195.094 16.838-281.936-39.020l-5.898-53.186c51.28 16.838 103.812 16.838 119.573-23.247 38.36-97.509-92.945-268.225-128.842-357.623-97.385-242.536 136.382-270.585 303.141-170.622l6.374 57.539c-90.731-23.821-155.459 5.418-103.013 132.124zM605.699 733.645c64.684 0 117.121 50.671 117.121 113.178s-52.437 113.178-117.121 113.178c-64.684 0-117.121-50.671-117.121-113.178s52.437-113.178 117.121-113.178z" />
<glyph unicode="&#xe631;" glyph-name="places" d="M402.076 8.704c0-47.193 14.781-52.224 67.45-52.224 46.436 0 66.115 7.925 66.115 52.224v848.362h-133.565v-848.362zM900.141 823.674l-330.752 0.312v-267.531h333.557l102.934 133.61-105.739 133.61zM468.858 960c-58.279 0-64.022-42.207-64.022-69.944 24.442 2.182 130.805 0 130.805 0 0 27.737-11.309 69.944-66.783 69.944v0zM569.389 520.392v-197.632h199.992l102.934 100.129-105.739 100.263-197.187-2.76zM0 692.87l98.749-136.726h270.291v267.531l-267.487-0.356-101.554-130.449z" />
<glyph unicode="&#xe632;" glyph-name="plus" d="M608 432v256h-160v-256h-256v-160h256v-256h160v256h256v160h-256z" />
<glyph unicode="&#xe633;" glyph-name="price" d="M491.442 938.473c-32.659 32.678-479.874 17.049-479.874 17.049s-26.969-505.792 1.138-509.941l521.978-485.39c33.342-33.246 87.338-33.246 120.68 0l323.918 359.51c33.342 33.303 63.441 117.412 30.156 150.715l-517.995 468.056zM109.83 723.54c-34.764 34.723-34.764 91.099 0 125.823 34.821 34.723 91.207 34.723 126.028 0s34.821-91.099 0-125.823c-34.821-34.78-91.207-34.78-126.028 0zM579.158 181.739l-12.839 7.615c-4.694 27.898-13.086 51.832-25.175 71.757s-26.715 38.469-43.923 55.677c-10.071 10.071-18.006 17.832-23.784 23.348-5.777 5.472-11.043 10.433-15.775 14.905-4.754 4.45-9.707 8.967-14.859 13.553-5.196 4.63-12.241 11.37-21.133 20.263-22.81 22.81-38.801 45.636-48.017 68.479-9.194 22.82-13.299 44.949-12.359 66.342s6.138 41.576 15.638 60.547c9.479 18.949 21.619 35.847 36.42 50.649s28.344 25.943 40.562 33.447c12.239 7.482 24.059 13.076 35.458 16.783l27.865-55.727c-13.199 2.185-25.821 1.747-37.821-1.36s-24.366-11.027-37.144-23.805c-15.955-15.955-22.458-33.441-19.464-52.368 2.972-18.949 16.507-40.451 40.496-64.44l24.9-24.9c4.758-4.758 7.938-8.069 9.564-10s2.895-3.33 3.784-4.219l6.67-6.67 15.019 15.019c7.989 7.989 16.040 16.306 24.152 25.042 9.861 9.861 20.741 21.052 32.642 33.531l26.771-35.478-28.297-28.297c-7.553-7.553-15.238-15.105-23.078-22.633-7.839-7.572-13.783-13.383-17.832-17.431 8.299-8.865 16.41-18.717 24.266-29.491 7.879-10.796 14.974-22.375 21.265-34.76s11.573-25.199 15.804-38.442c4.254-13.265 6.882-26.777 7.907-40.558 12.771 13.349 26.13 27.286 40.033 41.812 13.925 14.503 27.262 28.462 40.033 41.812s24.431 25.765 35.022 37.245c10.591 11.481 19.226 20.826 25.88 28.103l30.736-35.96-199.388-199.388z" />
<glyph unicode="&#xe634;" glyph-name="print-friendly" d="M870.4 638.222h-716.8c-87.040 0-153.6-67.022-153.6-154.667v-309.333h204.8v-206.222h614.4v206.222h204.8v309.333c0 87.644-66.56 154.667-153.6 154.667v0zM716.8 71.111h-409.6v257.778h409.6v-257.778zM870.4 432c-30.72 0-51.2 20.622-51.2 51.556s20.48 51.556 51.2 51.556c30.72 0 51.2-20.622 51.2-51.556s-20.48-51.556-51.2-51.556v0zM819.2 896h-614.4v-206.222h614.4v206.222z" />
<glyph unicode="&#xe635;" glyph-name="print" d="M1024 671.084h-215.060v224.916h-593.879v-224.927h-215.060v-514.161h206.909v-188.912h602.030v188.912h215.060v514.171zM256 853.172h512v-182.099h-512v182.099zM254.474 10.839v457.653h514.15v-457.653h-514.15zM317.44 130.603h389.12v-32.158h-389.12v32.158zM317.44 248.428h389.12v-32.169h-389.12v32.169zM317.44 366.242h389.12v-32.094h-389.12v32.094z" />
<glyph unicode="&#xe636;" glyph-name="rss" d="M140.435-64c77.56 0 140.435 62.605 140.435 139.833s-62.875 139.833-140.435 139.833c-77.56 0-140.435-62.605-140.435-139.833s62.875-139.833 140.435-139.833zM819.206-59.636c0 450.506-366.761 815.709-819.206 815.709v203.927c565.541 0 1024-456.511 1024-1019.636h-204.794zM678.771-62.542h-198.955c0 263.872-214.825 477.781-479.816 477.781v198.085c374.888 0 678.771-302.587 678.771-675.866z" />
<glyph unicode="&#xe637;" glyph-name="terrain" d="M605.091 736l-176.873-240 134.982-182.4-74.473-57.6c-79.127 105.6-209.455 288-209.455 288l-279.273-384h1024l-418.909 576z" />
<glyph unicode="&#xe638;" glyph-name="unchecked" d="M512 928c-264 0-480-216-480-480s216-480 480-480c264 0 480 216 480 480s-216 480-480 480v0zM512 64c-211.2 0-384 172.8-384 384s172.8 384 384 384c211.2 0 384-172.8 384-384s-172.8-384-384-384v0z" />
<glyph unicode="&#xe639;" glyph-name="down-link" d="M713.28 343.936l-169.28-161.184v486.976h-96v-488.448l-170.784 162.656-67.008-63.872 285.024-272 285.024 272z" />
<glyph unicode="&#xe63a;" glyph-name="share2" d="M216.602 300.546c39.777 0.694 74.329 15.773 98.768 40.327l356.47-191.617c-4.804-9.735-4.551-24.206-4.383-33.854 1.431-82.006 67.163-143.588 151.689-142.113s148.068 65.314 146.637 147.32c-1.431 82.006-67.163 143.588-151.689 142.113-39.777-0.694-74.329-15.773-98.768-40.327l-356.47 191.617c4.804 9.735 4.551 24.206 4.383 33.854s-0.421 24.119-5.562 33.68l349.482 208.765c25.281-23.685 60.339-37.55 100.115-36.855 79.553 1.389 143.096 65.227 141.749 142.41s-67.079 138.764-146.632 137.376c-79.553-1.389-143.096-65.227-141.749-142.41 0.168-9.648 0.337-19.296 5.561-33.68l-349.482-208.765c-25.281 23.685-60.339 37.55-100.115 36.855-84.525-1.475-148.068-65.314-146.637-147.32s62.107-138.851 146.632-137.376v0z" />
<glyph unicode="&#xe63b;" glyph-name="play" d="M288 736v-608l480 304-480 304z" />
<glyph unicode="&#xe63c;" glyph-name="call" d="M326.4 476.8c52.267-104.533 141.867-190.4 246.4-246.4l82.133 82.133c11.2 11.2 26.133 14.933 37.333 7.467 41.067-14.933 85.867-22.4 134.4-22.4 22.4 0 37.333-14.933 37.333-37.333v-126.933c0-22.4-14.933-37.333-37.333-37.333-350.933 0-634.667 283.733-634.667 634.667 0 22.4 14.933 37.333 37.333 37.333h130.667c22.4 0 37.333-14.933 37.333-37.333 0-44.8 7.467-89.6 22.4-134.4 3.733-11.2 0-26.133-7.467-37.333l-85.867-82.133z" />
<glyph unicode="&#xe63d;" glyph-name="dog-walking" d="M453.145 578.885c14.88-8.986 26.784-11.981 40.176-11.981h11.904c2.976 0 2.976-2.995 5.973-2.995h49.104l13.392 4.493 25.296-1.498h14.88c13.392 1.498 32.736 0 55.056 2.995h31.248c22.32 0 47.616-17.971 74.421-17.971h25.296c14.88 0 23.808 5.99 37.2 11.981 26.784 8.986 37.2 17.971 61.008 34.445 23.808 17.971 34.224 32.947 61.008 52.416 8.949 6.011 16.368 6.011 25.317 14.976h11.904v-5.97c-8.928-9.006-5.952-20.987-14.901-28.475-22.32-32.947-37.2-49.421-62.496-79.373-23.808-25.459-41.664-40.435-69.936-61.402-11.904-4.493-17.856-13.499-28.272-13.499l-2.976 2.995c-2.976 0-5.952-2.995-5.952-5.99 0-17.95 11.904-26.957 11.904-40.435l-4.464-2.995 4.464-4.493v-19.469l-4.464-2.995c0-2.995 4.464 0 4.464-2.995 0-13.478-8.928-22.464-8.928-37.44v-71.885c0-14.976 5.952-23.962 8.928-41.933 2.976-7.488 2.976-16.474 7.44-25.48 11.904-17.95 26.784-26.936 26.784-49.421l-2.976-14.976 2.976-2.995v-16.474c0-5.99 2.976-11.981 2.976-17.971v-17.971c0-7.488 2.976-10.483 2.976-19.469l-2.976-2.995 2.976-5.99v-17.971c0-10.483-2.976-19.469-11.904-28.454l-5.952 2.995h-31.248c-2.976 0-2.976-2.995-5.952-2.995s-2.976 2.995-2.976 5.99c0 14.976 11.904 19.469 20.832 31.45 4.464 17.971 4.464 29.952 4.464 46.426 0 29.952-4.464 52.416-22.32 76.378-5.952 7.509-8.928 19.469-17.856 19.469-5.952 0-2.976-8.965-5.952-13.478-5.973-20.966-7.44-35.942-13.392-55.411-2.976-17.971-8.949-23.962-14.901-40.435-2.976-8.986-5.952-20.966-17.835-20.966h-40.197l-2.976 5.99c0 19.469 26.784 16.474 37.221 31.45 11.904 17.971 17.835 29.952 17.835 49.421 0 31.47-14.859 49.421-34.203 76.398-5.973 4.493-5.973 10.483-11.925 19.469-14.88 11.981-20.832 23.962-28.272 40.435-5.952 8.986-8.928 17.971-14.88 29.952-2.976 5.99-2.976 13.478-11.904 13.478-2.976 0-2.976-4.493-5.952-7.488-8.928-8.986-13.392-14.976-22.32-14.976-5.952 0-11.904 2.995-11.904 8.986h-11.904c-11.904-8.986-19.344-17.971-37.2-17.971h-25.317c-11.883-5.99-17.835-8.986-32.715-8.986-8.949 0-11.925-5.99-16.368-5.99-2.997 0 0 2.995-2.997 2.995-8.928 0-14.88-5.99-23.787-7.488-11.925-2.995-28.293-2.995-28.293-17.971v-43.43l-2.976-2.995v-6.011c-2.976-34.445 0-52.416 0-83.866v-40.435c-23.808-17.971-17.856-41.933-26.784-67.392-2.976-8.986-5.952-17.971-16.368-17.971h-43.152c-1.488 2.974-2.976 4.493-2.976 5.99 0 20.966 25.296 20.966 34.224 40.435 8.928 20.966 11.904 32.947 11.904 55.411v8.986h-2.976c-2.976 0-2.976-5.99-5.952-11.981-8.928-11.981-11.904-22.464-14.88-37.44-2.976-11.981-2.976-25.459-14.88-25.459h-43.173c-5.952 0-7.419 2.995-10.395 2.995 4.443 10.483 4.443 22.464 16.368 28.454 11.904 2.995 20.832 2.995 26.784 11.981 5.952 13.478 8.928 25.459 8.928 40.435v17.971c0 7.488 1.488 7.488 1.488 10.483v88.379c0 7.488-2.976 10.483-2.976 16.474v8.986c0 31.45-19.344 55.411-28.272 71.885-8.928 14.976-14.901 26.957-28.272 35.942-5.973 5.99-8.949 7.488-11.925 16.474l-5.931 11.981v8.986c0 11.981-5.952 17.992-8.928 28.475-2.976 17.971-2.976 29.931-13.413 43.43-2.955 5.97-4.464 8.986-5.931 11.981-4.485 2.995-17.877 0-17.877 2.995-5.952 11.981-17.856 8.986-20.832 17.971-1.488 13.478-16.368 10.483-25.296 22.464-10.416 0-20.832-1.498-31.248-5.99h-19.344c-16.368 0-20.832-5.99-26.784-5.99-8.928 0-23.808 5.99-29.76 8.986-11.904 5.99-16.368 8.986-22.32 17.971-5.952 5.99-2.976 11.981-5.952 17.971-2.976 4.493-8.949 7.488-8.949 13.478 0 11.981 11.925 14.976 20.853 23.962 16.368 11.981 25.296 19.469 43.152 31.45 5.952 6.011 13.392 12.002 13.392 20.966v19.469c0 11.981 14.88 11.981 23.808 20.987 14.88 11.981 20.832 22.464 37.2 31.45 13.392 8.986 37.2 14.976 46.128 14.976 26.805 0 23.829-8.986 40.197-17.971 52.080-22.464 63.984-62.92 107.136-104.853 8.928-5.99 14.88-16.474 22.32-23.962l181.557 220.168 37.2-28.454-177.093-217.173c8.928-2.995 16.368-2.995 25.296-7.488z" />
<glyph unicode="&#xe63e;" glyph-name="launch-and-recovery" d="M1024 544v-480h-1024l1024 480zM668.93 743.904l-35.070 71.904 271.469-45.612-131.19-242.002-35.070 71.904-201.33-98.195-70.139 143.807 201.33 98.195zM242.539 345.001l35.070-71.904-271.469 45.612 131.19 242.002 35.070-71.904 201.33 98.195 70.139-143.807-201.33-98.195z" />
<glyph unicode="&#xe63f;" glyph-name="safety" d="M740.87 448c0-44.371-13.284-85.549-35.918-120.025l149.632-149.671c59.759 73.706 95.677 167.474 95.677 269.696 0 92.249-29.412 177.486-79.004 247.413l-152.32-152.32c13.907-28.789 21.933-60.967 21.933-95.093zM521.739 228.87c-34.126 0-66.304 8.025-95.093 21.933l-152.32-152.32c69.927-49.553 155.164-79.004 247.413-79.004s177.486 29.451 247.413 79.004l-152.32 152.32c-28.789-13.907-60.967-21.933-95.093-21.933zM302.609 448c0 34.126 8.025 66.304 21.933 95.093l-152.32 152.32c-49.592-69.927-79.004-155.164-79.004-247.413 0-102.222 35.918-195.99 95.677-269.696l149.632 149.671c-22.634 34.477-35.918 75.654-35.918 120.025zM521.739 667.13c44.371 0 85.549-13.284 120.064-35.918l149.632 149.632c-73.667 59.759-167.435 95.677-269.696 95.677-102.222 0-196.029-35.918-269.696-95.677l149.671-149.632c34.477 22.634 75.654 35.918 120.025 35.918z" />
<glyph unicode="&#xe640;" glyph-name="water-type" d="M54.4 614.816c22.976-26.976 54.432-63.936 115.328-63.936s92.352 36.96 115.328 63.936c20.544 24.16 31.456 35.776 54.368 35.776 22.944 0 33.856-11.616 54.432-35.776 22.944-26.976 54.4-63.936 115.328-63.936s92.384 36.96 115.36 63.936c20.576 24.16 31.456 35.808 54.432 35.808 22.944 0 33.856-11.616 54.4-35.808 22.976-26.976 54.4-63.936 115.328-63.936s92.384 36.928 115.328 63.936c20.608 24.16 31.52 35.808 54.496 35.808 0.064 0 0.096 0 0.16 0v80c-0.064 0-0.096 0-0.16 0-60.928 0-92.416-36.96-115.392-63.936-20.576-24.16-31.456-35.776-54.432-35.776-22.912 0-33.824 11.616-54.368 35.776-22.976 26.976-54.4 63.936-115.328 63.936s-92.416-36.96-115.36-63.936c-20.576-24.16-31.456-35.776-54.432-35.776-22.912 0-33.824 11.616-54.4 35.776-22.976 26.976-54.432 63.936-115.328 63.936s-92.352-36.96-115.296-63.936c-20.576-24.16-31.456-35.776-54.368-35.776-22.944 0-33.856 11.616-54.432 35.776-23.040 26.944-54.496 63.904-115.392 63.904v-80c22.912 0 33.824-11.616 54.4-35.776zM54.4 383.36c22.976-26.976 54.432-63.936 115.328-63.936s92.352 36.96 115.328 63.936c20.544 24.16 31.456 35.776 54.368 35.776 22.944 0 33.856-11.616 54.432-35.776 22.944-27.008 54.4-63.936 115.328-63.936s92.384 36.928 115.36 63.936c20.576 24.16 31.456 35.776 54.432 35.776 22.944 0 33.856-11.616 54.4-35.776 22.976-27.008 54.4-63.936 115.328-63.936s92.384 36.928 115.328 63.904c20.608 24.192 31.52 35.808 54.496 35.808 0.064 0 0.096-0.032 0.16-0.032v80c-0.064 0-0.096 0-0.16 0-60.928 0-92.416-36.96-115.392-63.936-20.576-24.16-31.456-35.776-54.432-35.776-22.912 0-33.824 11.616-54.368 35.776-22.976 26.976-54.4 63.936-115.328 63.936s-92.416-36.96-115.36-63.936c-20.576-24.16-31.456-35.776-54.432-35.776-22.912 0-33.824 11.616-54.4 35.776-22.976 26.976-54.432 63.936-115.328 63.936s-92.352-36.96-115.296-63.936c-20.576-24.16-31.456-35.776-54.368-35.776-22.944 0-33.856 11.616-54.432 35.776-22.944 26.976-54.4 63.936-115.328 63.936v-80c22.848 0.064 33.76-11.584 54.336-35.744zM1018.656 267.712c-0.064 0-0.096 0-0.16 0-60.928 0-92.416-36.928-115.392-63.936-20.576-24.16-31.456-35.776-54.432-35.776-22.912 0-33.824 11.616-54.368 35.776-22.976 26.976-54.4 63.936-115.328 63.936s-92.416-36.928-115.36-63.936c-20.576-24.16-31.456-35.776-54.432-35.776-22.912 0-33.824 11.616-54.4 35.776-22.976 26.976-54.432 63.936-115.328 63.936s-92.352-36.96-115.296-63.936c-20.576-24.16-31.456-35.776-54.368-35.776-22.944 0-33.856 11.616-54.432 35.776-22.944 27.008-54.4 63.936-115.328 63.936v-80c22.912 0 33.824-11.616 54.4-35.776 22.912-26.976 54.368-63.936 115.296-63.936 60.896 0 92.352 36.96 115.328 63.936 20.544 24.16 31.456 35.776 54.368 35.776 22.944 0 33.856-11.616 54.432-35.776 22.944-27.008 54.4-63.936 115.328-63.936s92.384 36.928 115.36 63.936c20.576 24.16 31.456 35.776 54.432 35.776 22.944 0 33.856-11.616 54.4-35.776 22.976-27.008 54.4-63.936 115.328-63.936s92.384 36.928 115.328 63.904c20.608 24.192 31.52 35.808 54.496 35.808 0.064 0 0.096-0.032 0.16-0.032v80.032z" />
<glyph unicode="&#xe641;" glyph-name="thank-you" horiz-adv-x="2560" d="M361.024 608.736v-12.512c-0.544-0.544-0.544-0.544-1.088-0.544-1.632-0.544-5.44-2.176-11.968-4.352-21.76-6.528-35.36-9.792-40.256-9.792-7.072 0-19.040 0-36.992-0.544h-36.992c-4.352-3.264-8.704-4.896-12.512-4.896-4.896 0-16.32 5.44-21.216 5.44-4.352 0-13.056-10.88-25.568-33.184-14.688-25.568-22.848-39.168-24.48-41.344-1.632-15.776-6.528-27.744-15.776-35.904-1.632-13.6-5.44-34.272-11.424-60.928-4.352-3.808-10.336-9.248-17.408-16.32-0.544 0-1.088 0.544-1.088 2.176s0.544 3.808 1.632 5.984c-0.544 0.544-1.632 0.544-2.72 0.544-2.72 0-10.336-2.72-13.056-2.72-5.984 0-11.968 6.528-11.968 12.512 0 6.528 5.44 18.496 16.32 36.448 11.424 17.952 16.864 30.464 16.864 36.448 0 1.632-0.544 3.264-1.088 4.896h5.984c1.632 1.632 2.176 4.896 1.632 9.792 1.632 0.544 4.352 1.632 8.16 2.176 1.632 8.16 8.704 30.464 20.672 68-15.232-4.352-30.464-4.352-38.624-27.744-0.544-2.176-0.544-5.44 1.088-9.248-3.808-8.16-2.72-7.072-11.968-7.072-2.72 0-8.704 4.352-16.864 12.512s-11.968 14.144-11.968 17.408c0 13.6 10.88 25.568 32.096 35.904 18.496 8.704 35.36 13.056 51.136 13.056 2.176 0 6.528-1.632 8.704-1.632 7.072 0 13.6 4.352 18.496 13.6 6.528 11.424 10.88 17.952 12.512 19.584 5.984 4.352 8.704 8.704 8.704 13.6 0 1.088 0 2.72-0.544 4.352v4.896c0 4.352 3.264 10.336 10.336 18.496 8.16 9.248 12.512 15.776 14.144 19.584 8.16 23.392 15.776 38.624 22.848 45.696 3.264 6.528 7.616 16.32 12.512 29.376 0.544 3.808 1.632 9.792 3.264 17.952 1.632 4.352 8.704 6.528 21.216 6.528 1.632 0 5.44-2.176 10.336-7.072s7.616-8.16 7.616-9.792c0 0.544-2.72-9.792-8.704-29.92-10.336-6.528-20.128-19.584-30.464-38.624-7.616-14.688-15.232-29.92-23.392-44.608-3.808-4.352-9.248-11.424-16.32-21.76-0.544-1.088-0.544-4.896-0.544-11.968-4.352-2.72-7.616-6.528-10.336-10.88-3.808-7.072-5.984-10.88-7.072-12.512 0-1.632 1.632-3.808 4.896-6.528 8.16 2.72 14.688 3.808 19.584 3.808 7.072 0 25.024-2.72 31.552-2.72 5.984 0 19.040 2.72 23.936 2.72 1.632 0 2.176-0.544 2.176-1.088l-0.544-0.544c0-1.632 0.544-2.176 2.176-2.176 4.352 0 13.6 3.808 17.952 3.808s13.6-3.808 17.952-3.808c2.176 0 22.848 5.984 36.448 5.44zM223.936 665.856l7.072 7.072-2.176 2.176-6.528-7.072 1.632-2.176zM590.592 462.4v0c-2.176-6.528-2.176-11.968-0.544-16.864l-17.952-13.056c-7.072-5.984-11.968-11.424-13.6-16.32l-2.72 0.544c-4.896 0-11.424-4.352-19.584-12.512-8.16-8.704-15.232-13.6-20.128-14.688h-17.408c-1.632 0-2.176-1.088-2.176-2.72l1.088-2.72c-2.72 0-9.792-2.72-12.512-2.72-2.176 0-4.896 3.808-8.704 3.808s-10.88-1.632-14.688-1.632c-2.176 0-8.16 1.632-10.336 1.632s-4.352-1.632-6.528-1.632c-13.6 0-26.112 8.704-36.448 26.112-9.248 15.232-13.6 30.464-13.6 45.152 0 4.896 1.088 8.704 2.72 10.336-1.088 1.088-2.72 1.632-5.44 1.632l-0.544 6.528c-0.544 21.216 4.896 43.52 16.864 68 0.544 0.544 2.72 4.352 7.072 10.336 2.72 4.896 4.352 8.16 4.352 10.336 0-1.632-0.544-0.544-1.088 4.352h5.984c0 1.088 1.088 2.72 3.264 4.896-2.72 1.632-4.352 9.792-8.16 12.512-4.352-7.072-11.968-15.232-22.304-24.48-8.16-7.072-16.864-14.688-25.568-22.304-9.792-13.056-19.584-26.112-28.832-39.168-14.688-19.584-26.112-29.376-34.272-29.376-2.72 0-3.264 1.632-5.984 1.632-1.088 0-3.264-2.72-6.528-7.616-7.072 5.984-16.32 10.88-16.32 22.304 0 6.528 7.616 23.936 22.848 51.68 16.864 29.92 26.112 49.504 28.288 58.752 5.984 0 11.968 5.44 17.408 15.776 4.352 8.704 6.528 16.864 7.072 24.48 3.808 4.896 9.248 11.424 16.32 20.672-0.544 1.632-1.088 3.808-1.088 6.528 0 6.528 3.264 14.688 9.792 25.024 4.896 7.616 10.336 15.232 15.776 22.848 2.176-2.72 4.352-3.808 5.984-3.808 1.088 0 3.264 1.632 6.528 4.896-2.72 4.352-3.808 8.704-3.808 12.512 0 9.248 5.984 17.952 18.496 26.656-0.544 5.44 3.808 14.688 12.512 28.288 9.248 13.6 16.32 20.128 21.76 20.128 17.408 0 26.112-4.352 26.112-13.6 0-0.544-4.896-10.336-14.688-29.92-4.896-0.544-10.88-5.44-16.864-15.232-7.616-12.512-11.968-19.584-13.6-21.216-3.808-1.632-9.248-5.44-15.776-11.968-0.544-4.352-2.176-10.336-5.44-17.408-5.984-4.896-12.512-10.336-18.496-15.232-4.352-4.896-8.16-11.424-11.424-20.672 1.632-1.088 4.352-3.264 7.616-5.984-12.512-0.544-18.496-9.792-17.408-27.2-5.984-4.896-11.968-15.232-17.952-29.92-4.352-11.424-8.704-23.392-12.512-34.816l3.264-3.264c2.72 2.176 7.072 7.616 12.512 16.32 3.808 5.44 9.792 10.88 19.040 15.776 12.512 7.072 19.584 10.88 21.216 12.512 3.808 4.896 10.336 11.968 19.584 20.128 17.408 11.968 32.096 17.952 43.52 17.952 4.896 0 17.408-7.072 17.408-11.424 0-2.72-2.176-8.16-6.528-15.232-4.896-8.704-7.616-14.144-8.16-16.864-2.176-5.984-9.792-22.304-22.848-49.504-10.336-20.672-15.232-36.448-15.232-47.872 0-5.984-7.072-19.584-7.072-24.48 0-11.968 4.352-25.024 13.056-39.168 9.248-16.32 19.584-24.48 30.464-24.48 12.512 0 31.552 7.072 57.664 21.216 1.632-0.544 5.984-13.056 9.792-13.056s8.704 1.088 8.704 5.984c0 2.176-0.544 6.528-1.632 12.512h2.72c3.264 0 10.336 4.352 21.76 12.512 13.6 9.792 21.216 15.232 23.936 16.864zM537.824 433.024h2.72l-2.72-7.616-2.72 1.088 2.72 6.528zM872.928 489.056c-2.72 1.632-4.896 2.72-5.984 4.352-11.968-9.248-20.672-15.776-26.656-20.128 1.088-7.616-1.632-11.424-8.704-11.424s-11.424-0.544-13.056-1.632c-1.632-0.544-6.528-4.352-14.688-11.424-7.616-7.072-11.968-10.336-12.512-10.336-2.176 0-1.632 1.632-3.808 1.632-1.632 0-5.44-3.264-11.424-9.792-5.984-5.984-9.792-9.248-11.424-9.248-4.352 0-14.144 1.632-18.496 1.632-5.984 0-11.968 5.44-17.952 15.776s-8.704 19.040-8.704 25.568c0 1.632 2.176 7.072 7.072 15.776 4.896 10.336 7.616 16.32 8.16 17.952 4.896 13.6 8.16 21.216 9.792 22.848 1.088 5.984 1.632 10.336 2.176 13.6 9.792 8.16 16.864 14.688 21.76 19.584 0.544 8.16 0.544 14.144 0.544 18.496-5.984 4.896-10.88 8.704-14.144 11.424 4.896 2.176 7.072 5.44 7.072 9.792 0 14.688-12.512 22.848-27.2 22.848-16.32 0-31.552-13.056-45.152-38.624-2.176 0-7.616 1.632-9.792 1.632-2.176-4.896-5.44-9.248-10.336-13.056-2.176-2.176-6.528-5.44-13.056-10.336 0-8.16 0-11.968 0.544-11.968-5.984-0.544-10.336-1.088-13.056-1.632 1.088-1.632 1.632-3.264 1.632-4.352 0-4.896-5.44-10.336-15.776-15.776l5.44-4.896c-7.072-1.632-14.688-8.16-22.848-19.584-11.424-15.232-17.952-23.392-19.584-25.024 4.896 0 7.072-1.088 7.072-2.72-8.16 0-17.952-6.528-28.288-19.040s-15.776-23.392-15.776-32.64c0-8.704 3.808-14.688 11.968-17.952 7.616-1.632 15.232-3.808 22.304-5.984 3.808 2.72 9.792 6.528 19.040 11.424s15.232 8.704 19.040 12.512c8.16 8.16 15.232 18.496 26.112 22.304-0.544 4.896-1.088 7.072-1.088 5.44 0 0.544 0 0.544 0.544 1.088 4.352 0 14.144 5.984 29.92 17.952 1.632 7.072 3.264 10.336 5.984 10.336 1.632 0 2.72-4.352 2.72-13.6v-22.304c0 0 4.896-6.528 14.144-20.128 5.984-8.16 12.512-12.512 18.496-12.512 2.176 0 2.176 1.632 4.352 1.632 2.72 0 8.16-5.44 10.88-5.44 11.968 0 23.392 1.088 34.272 2.72-2.72 1.632-4.352 3.808-5.44 5.44 2.72 0.544 3.808 0.544 3.808 0.544-2.72 0 0.544-0.544 9.792-1.088 0.544 5.984 4.896 10.336 11.968 13.6 1.088 0.544 7.072 2.176 18.496 5.44 2.176 9.792 14.144 19.040 35.36 27.2-0.544 1.632-1.088 3.264-1.088 4.352 0 1.632 3.808 5.984 11.424 13.6l14.144 14.144zM719.52 556.512c0-7.072-4.352-16.864-12.512-28.288-12.512-16.32-18.496-25.024-19.040-25.568 0-0.544 5.44-0.544 5.44-4.352 0-2.176-4.896-4.896-14.144-8.704l-4.352 3.808c-2.176-4.896-5.984-10.336-11.968-16.32-7.072-7.072-11.968-10.88-15.232-10.88h-0.544c-2.72-5.984-10.336-13.056-22.848-21.216s-22.304-12.512-29.376-13.056c-0.544 5.44 1.632 10.88 5.984 16.864 4.896 5.984 7.072 10.88 7.072 13.6 0 1.632-0.544 2.72-1.088 3.808 2.72 2.72 4.896 3.808 7.072 3.808 2.72 0 21.216 22.304 56.576 66.368 3.264 0.544 5.44 1.088 7.072 1.088l11.424 14.688c5.44 5.984 10.336 8.704 15.232 8.16 2.72 2.72 4.352 5.44 5.44 7.072 3.808-1.632 6.528-1.632 8.16-0.544-1.632-3.808-1.088-7.072 1.632-10.336v0zM1159.072 457.504c-2.72-4.352-4.352-7.616-4.896-10.336-9.248 0.544-19.584-3.264-31.008-11.968-17.952-14.144-26.656-21.216-27.2-21.216-1.632 3.264-2.72 4.896-3.808 4.896 0 0-7.072-2.72-21.76-8.704s-26.112-8.704-34.816-8.704c-9.248 0-16.864 5.984-22.848 17.952-5.44 10.336-8.16 20.128-8.16 30.464 0 3.808 1.088 9.792 3.808 17.952s4.352 14.688 3.808 19.040v3.808c14.688 25.568 25.568 45.696 31.552 61.472 2.72 1.632 4.896 3.264 6.528 3.808 3.808 10.336 7.616 19.584 10.88 28.832-1.088 1.632-5.44 3.264-13.6 5.984s-13.056 3.808-15.232 3.808c-0.544 0-5.984-4.896-16.864-14.688-10.336-9.792-17.408-15.232-20.672-16.864-0.544-3.808-1.088-6.528-1.632-7.616-7.072-0.544-18.496-7.616-33.184-21.76-9.792-10.336-19.584-20.672-28.832-31.008-7.072-1.632-13.6-10.88-24.48-10.88-0.544 0-1.088 0-1.088 0.544 0 2.176 7.072 18.496 21.76 48.416s22.304 45.696 22.304 47.328c0 10.88-12.512 18.496-23.392 18.496-2.176 0-4.896-1.632-7.616-4.352-2.72-7.616-3.808-13.6-3.808-18.496v-2.72c-12.512-25.568-27.744-61.472-46.24-108.256 2.176 0 3.264-1.088 3.264-2.72-15.232-13.6-22.848-25.568-22.848-34.816 0-6.528 9.248-19.584 15.232-19.584 2.176 0 9.792 1.632 11.968 1.632 5.984 0 27.744 21.216 66.368 63.104l-3.808 1.088c2.176 3.808 3.264 5.984 3.264 6.528 0.544-1.088 1.632-1.632 3.264-1.632s9.248 6.528 22.304 20.128c13.056 13.6 20.672 20.672 23.392 20.672-3.808-11.424-7.072-23.392-10.336-34.816-3.808-14.688-5.984-26.656-5.984-35.904 0-21.76 4.352-40.256 12.512-55.488 10.336-18.496 25.024-27.744 45.152-27.744 7.072 0 16.864 2.176 29.376 5.984 14.688 4.896 24.48 7.616 29.376 8.16 0 4.352 5.44 9.248 16.32 14.144 7.072 3.264 14.688 6.528 22.304 9.248 22.848 27.2 36.448 42.976 41.344 46.784h-11.968zM940.928 505.92l-2.176 4.352 2.176 1.088 2.72-5.44h-2.72zM937.12 501.024v6.528h2.72v-6.528h-2.72zM1457.728 467.84c-3.808-1.632-16.32-9.248-37.536-22.848s-32.096-20.672-33.184-20.672c-1.088 0-1.632 0.544-1.632 1.088s-0.544 0.544-2.176 0.544c-3.808 0-15.776-11.968-18.496-16.864h-4.896l-2.176 3.808c-2.176-2.72-4.352-4.896-6.528-7.072-3.264-3.808-5.44-5.44-7.072-5.44-2.72 0-4.352 1.632-6.528 1.632s-8.704-1.632-20.128-4.352c-10.88-3.264-20.128-4.896-27.2-4.896-29.92 0-53.312 22.848-53.312 52.768 0 4.896 1.088 13.056 2.72 23.392 2.176 10.88 3.264 19.040 3.264 23.936 2.72 3.264 13.056 17.408 32.096 42.432 13.6 17.952 24.48 31.008 33.728 39.712 10.336 10.336 26.112 22.304 47.328 36.448 0.544 6.528 1.632 15.776 7.616 17.952v6.528c-1.632 0.544-11.424 5.984-15.232 5.984-4.896 0-13.6-2.72-27.2-7.616-13.056-4.896-21.76-8.704-26.656-11.968-12.512-7.616-22.304-17.408-29.376-29.92-9.792-0.544-19.040-5.984-27.2-15.776-8.16-9.248-13.056-14.144-15.232-14.144h-1.088c-1.088 0.544-1.632 1.632-1.632 2.176 0 2.72 8.16 11.424 8.704 13.056 2.72 9.248 4.352 15.776 4.896 20.128 14.688 26.656 25.568 46.24 33.728 59.296 1.632 2.72 0.544 14.144 3.264 17.952 5.984 4.896 11.424 8.16 15.232 9.792 1.632 5.984 9.248 17.952 23.392 35.904 13.056 16.864 19.584 28.288 19.584 34.272 0 10.336-3.264 15.776-9.792 15.776-12.512 0-20.672-3.264-23.936-10.336-5.984-14.688-13.056-25.568-20.672-33.184-3.808-8.16-6.528-14.144-8.704-17.952 2.176-13.056-10.88-24.48-19.584-35.36 2.176-2.176 3.264-4.352 3.264-7.072 0-3.264-2.176-6.528-7.072-10.336-5.984-4.352-9.792-7.072-10.336-8.704-4.352-6.528-9.248-17.408-15.232-32.096s-10.336-24.48-14.144-30.464c-9.792-15.776-20.672-35.904-32.64-60.384 1.632-2.72 2.176-4.896 1.632-5.44-2.72-3.264-6.528-8.704-11.424-15.776-5.44-8.16-8.16-14.144-8.16-16.864 0-5.984 8.704-18.496 13.6-18.496 3.808 0 11.968 2.176 15.776 2.176-2.176 6.528 8.704 11.424 15.776 15.232 2.72 5.984 5.984 11.424 8.704 16.864 4.352 7.072 9.248 10.336 14.688 10.336 1.632 0 3.808-0.544 5.44-1.632-0.544-0.544-3.808-3.808-10.336-9.792-3.264-3.808-4.896-8.16-4.896-13.056 0-7.072 0-10.88-0.544-11.424-2.72-4.352-4.352-7.072-3.808-8.16 1.088-0.544 1.632-1.088 1.632-1.632 0-3.808-4.352-12.512-4.352-16.32 0-19.040 3.808-33.728 11.424-43.52 6.528-8.704 19.040-16.864 36.992-24.48 2.176-2.72 4.352-4.896 6.528-7.616 3.808-4.352 9.248-6.528 15.776-6.528 9.248 0 32.096 3.808 40.8 3.808 1.632 0 6.528 1.632 14.144 5.44s12.512 5.44 14.688 5.44c2.176 0 3.808-0.544 4.352-1.632 2.176 5.44 6.528 10.336 12.512 14.688 1.632-2.176 3.808-3.264 7.072-3.264h1.632c-0.544 2.72 2.176 5.44 8.704 8.16 5.44 1.632 9.792 2.72 13.056 2.72-1.088 2.72 1.632 5.984 7.616 9.792 8.16 4.352 13.056 8.16 14.688 11.968 0.544 0 2.72-3.808 5.44-3.808 2.176 0 8.704 7.072 19.584 20.672 9.792 11.968 16.32 20.128 19.040 25.024v0zM1228.704 530.4c0-4.896-2.72-8.704-8.16-11.968v8.704c3.264 1.632 5.984 2.72 8.16 3.264v0zM2003.36 666.4v0c0.544-7.072-1.088-13.056-4.896-19.040-2.72-3.808-14.144-7.616-16.864-10.336-3.264-5.984-9.248-13.6-17.408-23.936-2.72-2.72-17.408-15.232-44.064-38.080s-47.872-54.944-63.648-95.744c-13.6-36.448-26.656-72.896-40.256-109.344-3.264 0-8.704-2.72-15.776-8.704 3.808-3.264 5.984-5.984 6.528-8.16 0-1.632-1.088-4.896-2.72-9.248-2.72-5.44-3.808-8.16-3.808-8.704v-1.088c0-2.176-2.72-10.336-8.704-23.936-0.544-0.544-2.72-9.248-7.072-26.112-5.984-2.72-6.528-5.984-5.984-9.792s1.088-6.528 2.176-8.704c-5.44-3.808-9.248-9.792-10.88-18.496-1.632-9.248-4.896-14.688-9.248-17.408l0.544-1.632c0.544-5.984-1.632-14.688-6.528-25.024-8.16-16.32-11.968-24.48-11.968-24.48-3.808-10.88-17.952-31.008-41.888-59.84-0.544-0.544-3.264-2.176-8.16-5.44-2.72-1.632-4.352-4.352-4.352-8.16l-4.896 1.088c-4.896-8.704-9.248-14.688-14.144-17.952-26.112-20.128-46.24-31.008-60.384-32.64-2.72 0-11.424 4.896-15.232 4.896-2.72-0.544-1.632-4.352-4.352-4.352-6.528-0.544-23.936 5.44-30.464 4.896-2.72-0.544-4.896-1.632-6.528-4.352l-6.528 5.44v-0.544c0-1.088-1.088-1.632-3.808-2.176 1.632 0-10.88 3.808-36.992 11.968v1.632c0 3.264-3.264 5.984-9.792 8.16-8.704 2.72-13.6 4.896-14.144 5.44l-21.216 14.688c-8.704 6.528-14.688 12.512-17.408 17.408-12.512 23.392-19.584 42.976-22.304 59.296 1.088 2.72 1.632 5.984 1.632 8.704-0.544 5.984-9.248 15.776-9.792 19.584l-1.088 14.144c3.808 1.088 8.16 4.896 14.144 11.424 1.632 3.808 1.632 11.968 0.544 24.48 0 2.176-0.544 4.352-1.632 5.984l-3.808-4.896c-0.544 2.176-1.632 5.44-4.352 9.248-2.176 3.264-3.808 6.528-5.44 9.248 10.336 1.088 14.688 7.072 14.144 17.408-0.544 1.632-1.088 3.808-1.632 5.44 1.632 5.44 3.808 13.056 7.616 22.304 4.896 0.544 8.704 4.896 11.968 14.144 2.176 7.072 4.352 13.6 7.072 20.672h10.88c-20.128-40.8-28.832-71.264-27.2-91.936 0-2.176 1.632-7.616 1.632-9.792 0.544-4.896-3.264-20.128-2.72-25.024 3.808-41.344 17.952-76.704 42.976-106.624 28.288-32.64 62.016-47.328 101.184-43.52l22.848 2.176c19.584 1.632 45.152 19.584 76.704 53.312 5.984 4.352 14.144 11.968 24.48 22.304 1.632 0.544 3.808 1.088 7.616 2.176 16.864 33.184 26.656 52.224 28.288 56.576 10.336 21.216 17.952 40.8 22.848 58.752 5.984 1.632 8.16 5.984 7.616 13.056-0.544 3.808-1.632 8.704-4.352 13.6l4.896-1.632c2.72 1.632 4.352 5.44 4.896 11.424 1.632 0.544 4.352 2.176 8.16 5.44-0.544 3.264-1.632 8.16-2.72 15.232v1.632c4.896 4.896 8.16 12.512 10.336 22.848 2.176 8.16 4.352 16.864 5.984 25.024 4.896 4.352 7.072 9.248 7.616 14.688 3.808 0.544 7.072 1.632 9.248 4.352-1.632 0.544-3.808 2.176-5.984 4.352l5.984 0.544c0.544 1.088 0.544 2.176 0.544 2.72-0.544 2.176-1.632 5.44-2.176 7.616 0 2.176 1.632 6.528 4.896 12.512 3.264 6.528 5.984 11.424 7.616 14.144l3.808-1.632c-0.544 2.72 0 7.616 0.544 13.6 0.544 3.808 1.088 4.896 1.088 3.808-0.544 3.264-2.72 4.896-7.616 4.352l-1.088 7.072c1.632 2.72 5.44 7.072 12.512 13.056-1.088 2.176-2.72 5.44-5.44 9.792-0.544-3.808-6.528-9.792-18.496-18.496-13.6-10.336-21.216-16.32-22.848-19.040-7.616-10.336-16.864-21.76-28.288-34.272-3.808-0.544-4.352-5.44-4.896-5.984-4.896-1.632-11.424-6.528-19.584-14.144 0-0.544 0-1.088 0.544-2.176 0-1.632-1.088-2.176-3.264-2.176-3.808-0.544-5.44 3.264-5.984 3.264-0.544-0.544-1.088-1.088-0.544-1.632 0-1.632 0.544-3.264 1.632-5.984-3.264-1.632-10.336-3.264-20.672-3.808-5.44-0.544-11.968 2.176-19.584 8.704-7.072 6.528-11.424 12.512-11.968 18.496-0.544 7.072 5.984 21.76 20.128 42.976 14.688 21.216 21.216 35.904 20.672 43.52 8.16 3.264 11.424 10.88 9.792 22.304 3.808 2.176 8.16 11.424 13.6 27.744 4.352 14.144 11.424 21.76 21.216 22.304 2.72 0.544 7.616-1.632 13.6-5.44s9.248-6.528 9.792-9.248c0.544-4.896-3.808-13.6-11.968-25.568s-15.232-20.128-20.128-23.936c-1.088-18.496-7.616-32.096-19.040-41.344-7.072-15.232-11.968-28.288-14.688-38.624l3.264-3.264c0.544 0 16.32 13.056 47.872 39.168 5.984 5.984 15.232 15.232 28.288 27.2 4.352 2.176 10.88 5.44 19.040 9.248 0.544 0.544 1.088 1.088 0.544 1.632 0 0.544-0.544 2.176-1.088 4.896 4.896 5.984 23.392 15.232 28.288 21.216 6.528 11.424 17.952 27.2 34.816 46.24-0.544 1.088-0.544 2.176-1.088 3.808-0.544 3.808 3.808 9.792 13.056 17.952s14.144 16.32 14.144 24.48c0.544 0.544 1.632 1.088 2.72 1.088 1.632 0.544 3.264 0 5.984-1.632 0 2.72 0.544 7.616 1.088 14.144 3.808 1.632 13.056 10.88 28.288 27.744 12.512 13.6 22.848 20.672 31.008 21.216 4.896 0.544 11.424-1.632 19.584-5.44s12.512-7.616 13.056-12.512zM1410.4 262.208l3.264 0.544-1.088-11.424-3.264-0.544 1.088 11.424zM1412.576 248.608l3.264-13.056h-3.264l-3.264 12.512 3.264 0.544zM2248.704 610.368c-10.88 1.088-23.392 1.632-37.536 1.632-6.528 0-22.304 6.528-28.288 6.528s-18.496-5.44-24.48-5.44c-5.984 0-20.128 2.176-26.112 2.176-0.544 0-28.832-1.088-84.864-3.808 0.544-21.216-16.864-34.816-29.92-49.504 3.264-0.544 4.896-2.176 5.44-4.896-9.792-7.072-17.408-11.968-22.304-15.232 3.808 0 5.44-1.632 5.984-4.896-10.336-2.72-19.040-11.968-25.024-26.656-8.16-19.040-13.6-30.464-17.408-34.272l-1.632 3.808c-7.616-21.216-13.056-37.536-15.776-48.416 3.808 0 7.072-1.088 9.248-3.264-4.896-4.352-7.616-7.616-7.616-9.248 0-5.44 2.72-11.968 8.704-19.040 5.984-7.616 11.424-11.424 16.32-11.424 23.392 0 44.064 12.512 63.104 37.536 13.6 22.304 26.656 44.064 40.256 66.368-2.72 0.544-4.896 1.632-5.44 4.352 8.704 5.984 15.232 17.952 19.584 35.36 2.72 9.248 4.896 23.392 7.072 41.344 0 0 4.352 4.352 13.6 12.512 6.528 5.984 11.424 8.704 15.232 8.704 4.352 0 15.232-3.808 19.584-3.808 3.808 0 11.968 5.44 15.776 5.44 6.528 0 23.936-1.632 30.464-1.632 2.72 0 5.984 3.808 8.704 3.808 8.16 0 28.288 1.088 35.36 1.088 4.352 0 10.336 0 17.408-0.544l-5.44 11.424zM2067.552 557.6c0-10.336-8.704-32.64-26.656-65.824-17.408-33.184-30.464-53.312-39.712-60.384-7.616-2.176-13.056-3.808-16.864-5.44v15.232c0 8.704 7.616 28.832 22.848 59.84 5.984 5.44 15.232 17.952 28.288 37.536 11.424 17.408 21.216 28.832 29.92 34.272 0-2.72 2.176-11.424 2.176-15.232v0zM2488.608 494.496v0c-11.968-4.896-27.744-18.496-47.872-40.8-4.896 1.088-7.072 1.632-5.984 1.632-4.352 0-11.968-2.72-22.848-8.704 0-3.264 1.632-4.896 4.896-4.896-11.424-5.44-24.48-11.424-40.256-17.952-2.176-4.896-4.352-7.072-6.528-7.072-0.544 0-1.088 1.088-1.088 3.264-0.544 1.088-1.088 1.088-1.632 0.544-8.16-8.704-19.040-13.056-31.552-13.056-33.728 0-50.592 20.672-51.136 62.56-5.984-5.984-15.776-14.144-29.376-25.024l-8.16-1.088c-1.088-8.16-10.336-17.952-27.744-28.288s-31.008-15.232-40.256-15.232c-2.176 0-7.072 3.808-9.248 3.808-2.72 0-2.176-3.808-4.352-3.808-3.808 0-11.424 7.616-15.776 7.616 0 4.896-5.44 18.496-5.44 23.392 0 12.512 7.072 28.832 21.216 47.872 15.232 20.672 23.392 35.36 25.024 43.52 9.248 14.688 19.040 29.376 28.832 44.064 15.776 22.304 26.656 33.728 32.64 33.728 0 0 2.72-1.088 8.704-3.808 5.984-2.176 9.248-3.264 10.88-3.808v-15.776c-4.896-2.176-11.968-9.792-21.216-22.848-11.968-16.864-18.496-26.112-19.584-27.2-1.632 1.632-2.72 2.176-4.352 2.176-0.544-8.16-5.984-19.040-16.32-33.728-10.336-14.144-15.232-24.48-15.776-31.008l-1.632 3.808c-3.264-7.072-7.616-17.952-13.6-32.096 1.088-1.632 2.72-2.72 4.352-2.72 10.88 0 33.184 14.688 66.368 43.52l65.28 58.752c0.544 3.808 6.528 11.424 17.952 22.848 11.424 11.968 19.040 17.952 21.76 17.952 2.176 0 5.984-3.808 8.16-3.808 4.352 0 1.632 2.176 5.984 2.176l0.544-0.544c7.072-3.808 10.88-8.16 10.88-13.6 0-8.16-5.44-16.32-15.776-25.568-14.688-12.512-22.848-19.040-24.48-20.672-4.896-7.072-9.792-17.408-14.688-30.464-4.352-13.056-6.528-23.936-6.528-32.64 0-9.792 3.808-14.688 11.424-14.688 5.44 0 15.232 2.176 29.376 5.984 13.056 3.808 22.304 6.528 28.288 9.248 3.264 1.632 14.688 8.704 34.816 21.76 19.040 12.512 28.832 18.496 29.376 18.496 2.176 0 1.088-2.176 3.264-2.176-0.544 0 8.16 5.44 25.568 16.864 5.44-5.984 8.16-9.792 7.616-12.512z" />
<glyph unicode="&#xe642;" glyph-name="national-trust-logo" horiz-adv-x="730" d="M478.624 690.938c6.176 10.81 14.272 21.574 23.546 30.586 14.298 13.888 32.134 21.811 44.045 21.811 12.115 0 16.89-4.192 19.13-4.192 1.984 0 3.718 2.848 6.803 3.763 1.088 0.211 0.909 0.646 1.958 0.646 1.35 0 3.994-2.419 3.994-3.744 0-1.094-0.461-1.094-0.653-1.997-0.678-3.066-3.341-4.832-3.341-6.803 0-2.010 6.163-5.734 6.163-20.678 0-14.285-9.229-36.109-22.221-51.744-7.91-9.466-14.714-13.632-17.376-16.269-1.53-1.517-2.189-4.429-3.962-5.978-1.984-1.722-2.854-0.205-3.526-1.498-0.653-1.338-2.624-1.773-3.949-1.338-1.338 0.429-0.23-0.659-1.53-1.325-1.306-0.678-1.574-0.435-3.078-0.864-1.536-0.442-0.678-1.312-4.858-2.195 1.293-0.659 8.134 0.192 9.696 0.192 1.536 0 6.15 1.35 7.674 1.35 1.562 0 1.562 0.41 3.091 0.41 1.555 0 1.293-0.205 2.227-0.205 0.896 0 3.757 1.306 5.722 0 0.666 0.627 3.738 0.442 4.589 0.442 0.902 0 1.114-0.89 2.221-1.107 1.107-0.205 3.078 0 4.634-0.429 0.422-0.218 0.883-0.218 1.734-1.101 3.098 0.186 5.734-1.568 6.4-2.432 1.318-1.542 2.24-0.429 2.886-1.107 0.627-0.666 2.81-1.35 3.296-2.637 0.179-0.678-0.218-1.12 0.179-1.53 0.474-0.429 2.010-0.429 2.445-0.691 0.429-0.192 0.909-0.87 1.331-1.286 0.422-0.672 1.99-1.101 1.51-2.861 2.413 0 4.422-2.874 4.422-4.403v-1.536c0 0 0.64-0.678 1.536-0.89 0.877-0.23 2.419-3.725 1.997-5.28-0.467-1.306 0.173-1.12 0.173-1.984 0-13.664-25.734-24.666-60.294-24.666-13.203 0-18.477 5.306-19.13 7.264-0.422 1.094-0.422 1.574-0.422 2.413-0.448 0.672-1.805 2.656-0.71 4.627 0 0-0.64 1.126-0.64 2.662 0.211 3.091 1.35 2.842 1.35 3.955 0 0.64-0.237 1.114-0.237 1.747 0 1.555 0.666 1.773 1.082 3.974 0.454 1.741 0.666 0.416 1.53 1.984 0.883 1.523 0.883 0.435 0.883 2.432s0.486 2.176 2.426 2.835c0 0 0.486 2.88 2.643 3.11 0.928 0 0.461 1.094 0.928 2.182 0.416 1.094 1.715 0.237 2.176 1.331 0.211 0.659 2.451 2.65 4.838 3.078-8.589 0.23-13.638-1.984-17.389-1.754-2.624 0.192-3.526 0.646-14.765-1.786-13.837-3.053-39.162-16.051-51.699-23.77-15.635-9.645-56.333-38.042-69.587-62.714-2.182-3.776-6.778-27.078-12.333-47.962-6.342-24.026-14.054-47.168-14.496-51.302 3.52 4.838 7.251 8.563 11.213 8.563 7.072 0 5.286-8.563 6.182-9.229 1.107-0.666 1.107 1.766 1.107 3.968 0 2.195 0.448 7.27 3.731 12.55 3.738 5.952 10.368 12.102 18.483 18.438 7.898 6.202 13.222 22.253 17.408 34.15 4.166 11.898 11.878 25.062 22.458 25.062 7.488 0 11.885-6.573 13.427-9.229 1.754-3.277 3.93-10.323 6.573-9.888 6.17 1.126 20.928 33.907 33.485 46.88 5.952 6.15 12.339 13.626 23.59 13.626 19.738 0 16.89-27.712 24.806-27.712 5.274 0 8.819 7.93 11.226 11.2 5.101 7.315 21.133 20.275 30.643 20.275 9.203 0 10.752-7.488 10.752-14.093 0-5.299-1.299-10.118 3.968-10.118 3.309 0 12.973 17.158 25.107 17.158 4.826 0 9.901-3.066 9.901-9.222 0-5.734-0.89-8.774-0.89-10.56 0-1.779 1.536-2.874 3.744-2.874 2.662 0 5.286 0.698 7.507 0.698 5.248 0 9.875-3.328 9.875-10.368 0-8.147-4.384-13.856-9.677-20.064-2.189-2.4-2.848-4.384-1.101-7.245 2.861-4.614 7.475-5.722 7.475-9.683 0-9.683-6.374-12.992-12.102-14.31-5.517-1.338-16.288-1.734-16.288-9.203 0-6.432 8.614-10.81 8.614-22.048 0-4.851-1.811-9.018-8.397-12.576-7.258-3.923-21.574-4.55-23.77-4.55-6.592 0-15.629 1.274-20.928 1.274-5.28 0-10.099-0.224-10.099-3.29 0-5.939 12.122-10.336 12.122-22.662 0-12.787-19.603-14.989-31.066-14.989-13.645 0-24.211 2.426-35.629 6.413-5.939 1.978-17.85 8.128-26.656 8.128-5.267 0-7.904-1.747-7.904-3.962 0-3.738 9.216-10.573 9.216-19.827 0-7.898-6.579-10.989-12.742-10.989-22.246 0-36.986 26.214-69.126 26.214-8.128 0-11.424-3.328-21.158-3.328-12.294 0-16.045 4.179-15.808 11.45-7.904-3.533-17.626-11.45-17.626-22.003 0-8.384 0.826-12.723 3.923-16.026 3.066-3.322 7.040-4.403 7.763-7.174 2.227-2.182-1.011-8.083 0.55-18.598 1.203-8.122 3.661-18.938 4.902-21.651 1.114-2.47-7.802-3.424-10.304-3.45-4.064-0.026-17.85-0.346-18.304 3.475-1.248 10.541-10.291 49.523-13.574 58.362-4.41 11.642-6.374 10.541-13.658 16.262-6.208 5.267-35.866 25.35-51.738 25.35-4.192 0-1.965 0.614-5.299 0.614-2.195 0-0.416 0.448-1.741 0.448-1.306 0-1.075-1.062-3.27-1.062-1.344 0-0.461-3.776-1.344-3.776-1.325 0-0.877-1.338-1.094-2.835-0.23-1.555-1.562-2.464-1.792-3.776-0.179-1.312-1.76 0-1.76-1.517 0-1.549 0.704-1.549 0-2.445-1.274-1.766-1.114-2.637-2.17-2.637-1.101 0-1.101-0.416-1.101-0.877 0-2.003 0.883-1.754-0.435-2.874-1.331-1.075-3.091-1.075-3.091-2.829 0-0.666-0.435-1.101-0.659-1.773-0.883 0-1.754-0.877-2.214-1.562-0.448-0.666-0.211 0.461-1.094-1.088-0.864-1.536-0.659-1.286-1.747-1.286-3.072 0-1.99-1.562-6.4-1.562-14.746 0-32.365 25.734-32.365 46.003 0 14.099 2.010 13.901 2.464 16.749 0.41 2.874 2.624 5.69 4.365 5.939 1.773 0.211 1.101 0.864 3.091 0.614-0.205 1.114 1.568 1.35 2.413 1.798 1.299 0.685 2.195 0.685 3.968-0.448 0.64 0.448 1.126 1.139 2.438 1.139 1.306 0 1.766-1.376 2.592-1.376 1.574 0 1.139 0.461 2.451 0.461 1.306 0 1.997-0.224 3.526-1.126 0.659 0.237 1.094 0.666 1.997 0.474 0.666-0.237 1.971-0.672 2.17-1.536 0.896 0 1.984 0.211 3.757-1.114 0.653-0.422 1.325-1.338 1.549-1.952 1.325-0.262 0.659 0.813 2.65-0.262 1.971-1.101 1.971-1.286 3.066-2.835 1.094-1.523 0.864-0.211 2.445-1.126 2.413-1.498 1.299-2.413 2.413-3.277 0.659 0 0.877 0 1.754-0.653 1.056-0.915 0.218-1.562 1.056-2.010 0.486-0.224 0.922 0 1.114-1.536 0.256-1.088 1.76-1.766 3.13-3.526 0.845-1.088 3.059-3.29 3.725-3.29 0.87 0 0.666 0.864-0.666 2.637-1.754 2.4-1.754 1.325-3.059 4.851-0.467 1.088-1.549 0.64-1.549 2.426 0 1.299-1.965 2.874-1.965 3.974 0 1.062 0 1.523-0.73 1.965-0.659 0.435-0.838 0.64-1.056 1.299-0.691 1.773 0.218 1.773 0.218 2.886 0 1.088-1.101-0.237-1.318 0.64-0.243 0.902 0 1.965 0 2.861s-0.883 0.448-0.883 1.99c0 1.325 0.224 0.89 0.224 2.413 0 1.51-0.902 1.101-1.114 2.426-0.25 1.299 0.442 1.114 0.442 2.637 0 1.536-0.442 0.23-0.442 1.536 0 1.562 0.659 1.12 0.659 3.104 0 0.634 0.454 1.51 0.672 2.17 0.192 0.915-0.672 0.915 0 1.818 2.214 3.258 5.926 8.787 23.981 8.787 22.458 0 42.688-5.53 51.296-16.973 0.64-0.89 1.53-0.89 1.754-2.829 0.224-1.574 0.858-1.798 0.858-4.198 0-1.325-0.858-2.65-1.082-4.224-0.442-2.611 0.448-5.472-1.101-5.472-1.338 0-0.429-4.614-1.773-4.614-0.896 0-0.173-1.562-2.182-1.562-1.555 0 0-4.39-2.208-5.037-0.653-0.211-2.208 0.403-2.63-1.773-0.243-0.864-1.12-3.072-2.662-3.302-2.189-0.422-1.286-0.422-2.419-1.325-2.848-2.637-0.858-3.072-1.779-3.936-2.17-2.202-2.637 2.426-4.179 0.64-0.646-0.877-1.050-0.877-1.050-1.76 0-1.965-0.454-1.293-2.003-0.851-1.741 0.646-3.296-1.574-2.643-2.253 0.902-1.126-0.211-1.299-1.299-0.397-0.448 0.397-1.382 0.198-2.016 0.397-1.075 0.461-2.426 0-2.426-1.126 0-1.69 0.269-1.69-0.41-1.69-0.659 0-0.41 1.69-1.51 1.69-1.133 0-2.227-0.173-2.227-0.173 0.461-1.338 17.139-9.466 21.357-11.424 9.888-5.523 17.402-11.462 22.227-11.462 6.598 0 24.397 44.461 23.328 65.165-0.397 6.362-0.653 7.898-0.397 8.806 0.397 1.99-4.205 1.754-4.205 10.554 0 1.997 0.416 6.163 1.997 8.147 0.851 1.12 3.302 2.406 4.826 2.406 1.536 0 5.498-3.066 5.926-4.845 1.773 2.656 6.586 24.672 6.586 31.488 0 2.4-0.87 5.51-1.728 6.381-0.915 0.896-8.8 2.4-15.61 11.238-0.461 0.653-1.363 1.107-1.811 0.653-0.378-0.422 0-0.653 0-2.202 0-2.208-3.514-8.16-9.427-8.16-9.914 0-12.544 4.41-23.546 4.41-5.338 0-9.043-1.965-11.904-4.41-5.312-4.384-14.528-8.582-18.694-8.582-10.125 0-5.082 14.086-11.251 14.086-4.634 0-4.634-7.462-6.381-12.294-2.861-7.93-21.12-29.51-31.245-29.51-9.92 0-6.163 17.376-11.866 17.376-3.552 0-5.754-5.082-6.854-8.582-4.403-14.541-10.355-25.062-16.288-31.891-5.946-6.835-13.843-19.174-22.899-19.174-8.806 0-6.586 13.85-10.778 17.171-1.984 1.549-5.914 3.29-8.154-0.896-4.608-9.005-9.67-26.4-22.669-26.4-8.147 0-9.888 5.952-10.093 10.125-0.256 4.173-0.256 5.062-0.928 7.488-0.64 2.413-1.286 4.851-3.923 4.851-1.792 0-3.77-1.114-5.51-5.472-1.786-4.448-7.923-13.914-19.155-13.914-9.926 0-13.427 3.962-13.606 7.053-0.256 3.974 0.819 9.677-6.88 7.712-8.582-2.227-13.632 10.573-13.632 15.61 0 9.28 6.4 15.859 6.4 19.155 0 3.942-9.037 6.15-9.037 15.866 0 21.773 23.149 16.038 23.149 26.182 0 9.242-16.333 13.427-16.333 23.098 0 19.584 25.747 23.098 30.618 23.098 4.845 0 10.355-1.53 12.941-1.53 2.662 0 9.728 1.299 9.728 4.403 0 3.072-2.874 7.488-5.504 10.995-2.656 3.546-6.17 6.829-6.17 11.027 0 13.664 14.304 18.726 24.39 18.726 19.859 0 33.517-3.974 38.771-6.387 5.53-2.432 10.31-6.618 15.219-6.618 2.4 0 4.154 0.89 4.154 3.11 0 4.576-7.686 10.336-7.686 19.098 0 6.842 6.15 14.106 16.73 14.106 10.554 0 25.734-6.157 33.677-11.014 7.898-4.845 21.581-18.029 27.955-18.029 6.816 0-0.922 20.896 14.272 20.896 13.005 0 29.28-14.061 40.083-34.336 1.965-3.744 7.686-11.866 12.512-14.522 7.968-4.384 17.389-18.918 18.765-29.715 0.403-3.315 2.586-5.267 3.277-5.267-0.672 3.277-1.088 9.888 3.29 10.765 4.218 0.902 11.014-4.397 12.774-6.822 1.318 2.63-2.202 12.128-3.283 14.752-0.896 2.195-7.066 22.906-8.582 26.637-1.574 3.738-8.365 20.262-10.586 24.448-3.706 7.277-11.411 10.112-15.168 12.070-5.53 3.104-11.443 10.355-12.986 11.68-1.536 1.318-1.536 1.107-2.387 1.107-0.704 0-2.010-5.056-9.491-5.056-7.712 0-16.941 11.866-26.208 16.947-13.197 7.277-30.586 9.491-37.171 10.342-4.646 0.653-20.058 3.968-27.309 8.595-4.851 3.085-6.426 7.462-6.426 10.995 0 7.488 9.28 11.866 11.494 12.742 2.182 0.87 4.582 2.234 4.582 3.77 0 2.202-3.942 3.949-6.797 5.741-3.77 2.176-9.485 2.816-17.19 3.066-7.686 0.218-20.045 2.182-27.059 5.286-7.066 3.066-22.259 13.85-22.259 22.867 0 6.4 3.309 11.021 8.608 13.664 5.286 2.63 13.85 5.286 13.85 9.459 0 2.861-3.078 3.526-5.261 5.062-2.451 1.734-15.616 4.186-20.038 5.062-6.573 1.318-33.69 6.586-33.69 23.309 0 15.859 23.789 16.506 23.789 19.821 0 3.533-7.059 5.747-14.534 10.349-8.819 5.517-18.266 13.248-18.266 20.723 0 14.944 21.325 10.534 21.325 16.045 0 1.107-1.331 3.296-2.163 4.173l-6.611 6.394c-2.195 2.234-4.621 6.803-4.621 8.781 0 6.17 6.406 5.978 6.406 8.838 0 1.728-0.691 2.182-0.691 3.936 0 3.994 4.403 8.365 12.992 6.189 2.861-0.666 4.608-0.896 7.264-0.467 2.63 0.467 4.147 4.198 9.696 4.198 7.469 0 10.778-7.93 12.538-10.131 1.51-2.003 2.163-3.731 3.699-3.731 2.234 0 2.643 5.728 4.851 8.576 1.568 1.984 5.965 5.28 9.664 5.28 11.885 0 21.389-9.92 26.202-20.691 0.915-2.189 2.445-5.050 4-5.050 4.614 0 8.787 19.571 22.893 19.571 8.774 0 12.73-3.11 16.064-5.958 5.267-4.832 6.144-14.95 8.57-21.99 2.189-6.394 0.883-24.429 0.883-28.179 0-3.738 0.858-13.85 3.974-13.85 5.677 0 10.963 14.285 24.416 14.285 5.933 0 14.95-8.141 14.95-26.874 0-20.403-9.018-27.264-9.018-42.022 0-2.835 0.448-5.933 3.078-5.933 2.675 0 4.186 4.403 5.939 6.368 2.406 2.656 6.822 4.435 13.037 4.435 7.232 0 10.528-6.835 10.528-15.866 0-6.387-3.738-31.482-3.738-44.224 0-12.781 4.397-19.418 4.397-34.592 0-11.878-5.715-19.354-5.715-24.602 0-2.259 2.835-6.163 5.056-5.312-2.413 3.059 0 11.040 1.984 12.109 1.523 0.877 4.179 0.23 5.523-0.218-1.536 10.099 2.413 19.597 5.939 20.224 5.043 1.126 14.528-8.346 15.373-9.901 1.312 1.357 2.656 2.637 4.653 2.637 2.854 0 5.926-2.176 8.55-5.254 0.672 1.107 0.877 1.984 0.877 3.514 0 2.432-4.826 14.989-4.826 25.555 0 12.749 5.984 24.659 5.984 34.554 0 18.944-5.984 30.342-5.984 39.354 0 18.771 5.728 28.838 14.534 28.838 8.563 0 13.389-8.544 18.918-8.544 3.968 0 6.387 7.667 7.021 12.294 3.091 21.568 4.666 68.006 28.429 79.232 5.043 2.445 10.976 0.698 15.162-3.731 8.397-8.557 9.939-18.701 16.282-18.701 4.41 0 10.349 10.995 12.582 15.821 3.283 7.526 14.95 19.834 26.842 19.834 20.237 0 12.986-22.016 22.861-22.016 10.374 0 18.285 18.95 35.187 18.95 4.896 0 10.374-5.069 10.374-11.232 0-3.974-0.422-7.034-0.422-9.030 0-1.978 0-4.422 2.208-4.422 2.195 0 8.826 7.059 13.626 7.059 8.621 0 6.618-8.365 10.586-11.014 2.208-1.542 10.771-2.189 10.771-11.002 0-11.213-10.771-10.97-10.771-16.294 0-3.699 9.229-6.394 9.229-12.525 0-6.618-6.598-13.875-12.102-14.522-4.173-0.48-18.483 0-18.483-6.176 0-1.318 3.533-3.302 6.566-5.958 3.789-3.29 7.936-7.046 7.936-12.762 0-7.91-8.813-15.61-36.109-15.61-4.403 0-5.696 0.435-10.323 0.435-1.965 0-5.734-0.243-9.203-1.12-4.877-1.318-9.51-3.066-9.51-5.523 0-7.891 15.411-7.674 15.411-17.376 0-7.238-5.075-12.070-11.654-15.821-4.403-2.643-21.562-9.261-31.68-9.261-20.461 0-23.123 2.426-29.037 2.426-5.12 0-9.050-1.747-9.050-4.819 0-3.11 3.072-4.87 7.68-7.494 2.886-1.542 14.566-5.504 14.566-15.232 0-10.099-16.774-15.59-24.006-16.909-18.733-3.776-29.286-9.037-42.054-21.363-6.598-6.394-20.474-23.334-34.355-16.73-5.939-8.576-14.726-17.165-15.827-24.422-1.971-12.57 16.73-71.302 24.864-71.302 5.050 0 12.346 6.598 22.906 13.651 7.040 4.608 14.285 9.632 22.688 15.405 36.525 24.87 66.694 37.632 66.694 42.464 0 3.744-3.078 7.046-4.218 9.018-0.851 1.754-1.99 2.413-2.835 3.968-0.928 1.536-0.666 1.997-1.312 3.315-0.691 1.306-1.53 2.202-1.997 3.955-0.397 1.523-0.397 1.76-0.237 3.053-1.312 0.442-1.312 1.549-1.312 2.912 0 1.28 0.211 1.28 0.211 2.592 0 1.357-0.87 0.461-0.87 2.445 0 2.669 0.87 2.438 0.87 3.955 0 0.435-1.536 1.318-1.536 2.419 0 1.978 1.536 2.419 1.536 3.744s-1.088 0.883-1.088 2.202c0 4.422 1.331 3.763 1.779 4.883-0.23 0.858 0.243 3.712 1.754 4.806 1.523 1.094 3.302 3.309 4.634 3.085-0.045-0.019 0.589 1.741 2.381 1.51zM82.099-35.424v112.358h-42.797v12.704h109.683v-12.704h-43.11v-112.358zM258.707-18.752c-1.779-8.397-8.685-18.451-23.155-18.451-16.55 0-24.826 13.011-24.826 29.549v53.126l23.334 1.766v-58.016c0-10.938 4.877-16.237 12.403-16.237 5.741 0 9.728 4.141 12.243 8.262zM284.685-19.488c0-8.275 1.203-13.139 6.957-13.139-3.27-2.214-8.717-3.539-13.299-3.539-9.6 0-16.979 4.877-16.979 17.254v64.384l23.328 1.754-0.006-66.714zM368.147 39.565c11.213 5.613 23.040 17.587 29.222 28.077h2.963v-21.254h20.064v-9.024h-20.064v-51.526c0-7.821 4.563-14.47 14.022-14.47 4.403 0 9.286 2.061 12.115 6.509-2.227-6.938-9.024-15.066-23.347-15.066-16.96 0-25.824 12.838-25.824 29.389v45.171h-9.152v2.195zM166.598 29.44c3.693 10.477 11.213 19.622 23.315 19.622 2.656 0 5.165-0.589 7.238-1.338l-1.926-15.923c-11.072 7.315-23.802 0.090-26.848-13.248v-53.99h-22.733v81.152l21.094 1.76-0.141-18.035zM327.258-29.523c-10.042 0-17.709 6.765-22.144 14.163l-2.048-14.912c6.029-3.84 15.213-7.354 25.363-7.354 20.083 0 31.885 12.397 31.885 25.376 0 15.475-11.219 21.696-21.114 27.136-9.139 4.992-18.272 7.827-18.272 16.077 0 4.134 3.539 9.459 11.923 9.459 6.797 0 12.525-4.422 17.568-10.925l2.643 13.728c-4.877 2.515-11.942 5.165-20.934 5.165-19.174 0-28.934-11.949-28.934-24.787 0-13.139 9.306-20.653 18.886-25.965 9.6-5.299 19.322-8.41 19.322-16.39 0-5.92-5.888-10.771-14.144-10.771zM652.365 125.875v125.939l23.034 1.76v-127.699zM260.346 201.613c11.206 5.613 23.021 17.562 29.216 28.051h2.963v-21.274h20.077v-8.979h-20.077v-51.546c0-7.814 4.57-14.477 14.003-14.477 4.454 0 9.312 2.086 12.115 6.502-2.214-6.938-8.992-15.053-23.322-15.053-16.96 0-25.805 12.851-25.805 29.389v45.184h-9.165v2.202zM334.822 244.723c0-5.165 4.141-9.011 9.171-9.011 5.050 0 9.171 3.853 9.171 9.011 0 4.998-4.122 8.998-9.171 8.998-5.018 0.006-9.171-3.994-9.171-8.998zM355.68 125.875v82.976l-23.2-1.939v-81.037zM548.672 141.222c0-8.275 1.19-13.139 6.938-13.139-3.283-2.221-8.704-3.558-13.28-3.558-9.632 0-16.992 4.896-16.992 17.261v43.866c0 9.299-5.152 14.323-11.949 14.323-4.736 0-9.613-2.221-12.544-6.208 2.637 7.834 10.029 16.384 23.75 16.384 15.36 0 24.096-11.501 24.096-25.984v-42.95h-0.019zM497.875 125.875h-23.328v81.19l23.328 1.786zM414.925 131.622c-11.347 0-18.272 10.624-18.272 35.302 0 24.499 6.925 35.277 18.272 35.277 11.238 0 18.176-10.778 18.176-35.277 0-24.512-6.938-35.302-18.176-35.302zM414.925 210.163c-21.549 0-42.515-16.96-42.515-43.238 0-26.438 20.954-43.277 42.515-43.277 21.414 0 42.374 16.838 42.374 43.277 0 26.278-20.96 43.238-42.374 43.238zM630.765 141.222c0-8.275 1.203-13.139 6.509-13.139-2.957-2.221-8.122-3.558-12.256-3.558-8.986 0-15.802 4.896-15.802 17.261v28.666c-15.642-7.981-21.101-14.63-21.101-24.941 0-13.299 13.222-15.059 18.317-8.134-2.656-7.392-9.651-12.851-18.176-12.851-11.974 0-21.587 8.122-21.587 20.096 0 19.488 24.531 24.941 42.541 33.792v8.275c0 8.403-4.589 12.858-14.298 12.858-5.76 0-13.286-1.773-18.33-3.846v9.901c3.859 1.613 13.171 3.546 21.875 3.546 15.354 0 32.307-5.613 32.307-29.837v-38.086zM246.394 141.222c0-8.275 1.178-13.139 6.496-13.139-2.931-2.221-8.122-3.558-12.25-3.558-9.005 0-15.814 4.896-15.814 17.261v28.666c-15.622-7.981-21.107-14.63-21.107-24.941 0-13.299 13.229-15.059 18.323-8.134-2.643-7.392-9.658-12.851-18.17-12.851-11.968 0-21.562 8.122-21.562 20.096 0 19.488 24.499 24.941 42.515 33.792v8.275c0 8.403-4.57 12.858-14.31 12.858-5.747 0-13.28-1.773-18.317-3.846v9.901c3.834 1.613 13.165 3.546 21.856 3.546 15.347 0 32.346-5.613 32.346-29.837l-0.006-38.086zM67.917 212.090v-86.227h-14.931v127.187h5.766l92.582-88.134v86.81h13.901v-127.322h-5.165z" />
<glyph unicode="&#xe643;" glyph-name="youtube" d="M512.207 767.723c0 0 201.209 0 335.343-9.657 18.736-2.226 59.593-2.414 96.043-40.439 28.739-28.971 38.105-94.759 38.105-94.759s9.573-77.256 9.573-154.512v-72.427c0-77.255-9.573-154.51-9.573-154.51s-9.366-65.789-38.105-94.759c-36.45-38.024-77.307-38.212-96.043-40.438-134.134-9.657-335.55-9.959-335.55-9.959s-249.217 2.266-325.903 9.59c-21.332 3.985-69.23 2.783-105.693 40.807-28.739 28.971-38.091 94.759-38.091 94.759s-9.586 77.256-9.586 154.51v72.427c0 77.257 9.586 154.512 9.586 154.512s9.352 65.788 38.091 94.759c36.463 38.025 77.306 38.212 96.043 40.439 134.139 9.657 335.343 9.657 335.343 9.657h0.417zM413.041 308.161l258.959 133.652-259.003 134.587 0.044-268.239z" />
<glyph unicode="&#xe644;" glyph-name="cancel" d="M192.826 682.503l623.848-635.409 91.337 89.675-668.685 681.077-91.337-89.675 44.837-45.668zM771.837 772.178l-623.848-635.409 91.337-89.675 668.685 681.077-91.337 89.675-44.837-45.668z" />
</font>
</defs>
</svg>
